<svg xmlns="http://www.w3.org/2000/svg" viewBox="0 0 2985.08 2629.75"><g id="Layer_2" data-name="Layer 2"><g id="Layer_1-2" data-name="Layer 1"><path d="M2519.84,2629.75c.49-33.7,1-67.41,1.44-101.11.33-26.71.89-53.42.69-80.13-.5-65.39-1.79-130.77-1.94-196.16-.1-40.06,1.38-80.11,2-120.17.72-42.65,1.21-85.3,2-127.95.37-19.35,1.32-38.68,2-58,.13-4.26,0-8.52,0-13-7.86,0-14.74-.14-21.61,0-14.28.36-28.54.92-42.82,1.33-12.29.34-24.59.93-36.89.81-25.91-.24-51.82-.84-77.73-1.36-19.64-.39-39.28-1.24-58.93-1.26-34.88,0-69.77.59-104.65.59-21.56,0-43.12-.75-64.68-.9-11.63-.09-23.27.56-34.91.56-23.89,0-47.78-.3-71.67-.34-11.65,0-23.31.31-35,.35q-14.93.06-29.84-.19c-29.66-.43-59.31-1-89-1.35-16-.19-32,.06-48,0-18-.08-35.92-.06-53.87-.49-28-.66-56-2-83.94-2.4-16.92-.24-33.87.85-50.81,1.09-15.92.23-31.86.18-47.79.16-17.27,0-34.54,0-51.81-.27-15.94-.28-31.88-1.23-47.82-1.44-24-.32-48-.19-72-.34q-34.52-.22-69-.66c-12.14-.14-24.28-.42-36.42-.61q-36.95-.6-73.9-1.15c-3.65-.05-7.3,0-10.94,0-13.29.18-26.59.29-39.88.6q-35.88.84-71.77,1.88c-31.89.93-63.78,2.35-95.69,2.82-26.57.39-53.17-.5-79.75-.41-32.94.11-65.87.71-98.81,1q-51.51.42-103,.56c-31,.05-62-.32-93-.25-20,0-40,.27-60.07.86-28,.82-55.91,2-84.89,3.14-.34,4.05-.7,7.92-1,11.79-2.76,35-1,70,.62,105,1.83,40.34,1.73,80.65.29,121-.91,25.32-1.11,50.67-.94,76,.22,31,1.63,62,1.68,93.07.07,36-1.14,72.08-1.14,108.13,0,39,.78,78,1.18,117,.21,20.7.34,41.41.51,62.11H404.2c-.57-10.93-1.27-21.85-1.69-32.78-.45-12-1-24-.86-36,.29-19,1.2-37.93,1.79-56.9.44-14,.79-27.94,1.18-41.9s1.09-27.92,1.12-41.88c0-15.6-.67-31.19-.8-46.79-.22-25-.54-50.07-.27-75.09.35-33,1.18-66,1.93-99,.15-6.66,1.21-13.3,1.27-20,.22-25.36.19-50.71.28-76.07.1-29.05.51-58.1.27-87.15-.21-27.38-1.39-54.74-1.6-82.12-.23-29.95.15-59.91.25-89.87a8.64,8.64,0,0,0-.59-1.7,55.59,55.59,0,0,0-6.16-.85c-29-1.11-58-2.05-87-3.29-11.61-.5-13.77-3.07-13.51-14.85.28-12.67.73-25.34,1.25-38,.37-8.94,4.14-13,13.35-14.39,4.89-.71,9.86-.87,15.59-1.34.5-7.1,1-14,1.56-22.26,25.82-9.64,54-11.22,82.55-12.79,1.67-17.15,3.24-33.27,4.83-49.62-8.65,5.32-16.9,10.91-25.61,15.64-14.33,7.78-30.47,9.48-46.16,12.35-13.4,2.45-27.06,3.56-40.39,6.28-5.28,1.07-10.6,4.13-14.87,7.57-10.79,8.69-18.63,19.7-24.47,32.44-8.72,19-13.47,39.15-17.05,59.48-2.84,16.13-1,32.52,1.69,48.76,5,30.31,19,56.74,34.57,82.52,9.06,15,11.78,31.67,14.05,48.59,3.19,23.82-2.41,46.57-9.26,68.86-4,12.84-4.68,24.73.3,37.06.86,2.16,1.45,4.43,2.35,7.18,13.6,3.16,19.17,14.18,23.31,26.05,8.57,24.56,10.42,50.16,11,75.93.14,6.57-3.29,11.47-7.15,16.09-3.26,3.89-4.38,7.75-3.07,12.81,11.21,43.12,2.24,82.53-22.4,118.9-9.92,14.64-20.29,29-33.54,40.92-31.21,28.12-68,39.17-109.66,37.43-25.62-1.07-49.51-6.8-70.85-21.17-17.05-11.48-30.84-26.54-42.91-42.93a224,224,0,0,1-24.15-41.31C6.36,2316,3.26,2296.42.86,2276.48c-1.78-14.77-.53-29.25,1.28-43.81C3.85,2218.9,8,2206,15.75,2194.39c2.31-3.45,3.45-6.33,2.07-11-2.09-7-1.17-14.3,1.26-21.58,8-24,21.8-45,34.39-66.58,4.48-7.69,11.37-11.87,20.4-12.78,2.64-.27,6.36-1.39,7.49-3.33,9.88-17,23.93-30.26,37.77-43.75,4.31-4.19,8.56-8.55,13.38-12.07,21.51-15.72,29.21-38,31-63.32.82-11.65,1.05-23.38,2.65-34.92,1.83-13.19,8.24-25,16.83-34.69,11.46-13,24.35-24.67,36.88-36.65,8.46-8.09,14.26-17.46,16.13-29.09,4-24.74,9.08-49.17,19.84-72.06a114.12,114.12,0,0,1,20.91-30.32c12-12.61,27.28-17,43.85-19.27,17.15-2.33,34.31-4.91,51.25-8.42,13.57-2.8,25.62-9.74,35.91-18.91,12.7-11.31,27.31-18.07,44-19.63,7.43-.69,15.13,1.24,22.68,2.22,2.57.33,5,1.4,8.77,2.48-.36-6.37-.45-11.89-1-17.36-1.63-15.94-3.46-31.86-5.18-47.79a24.13,24.13,0,0,1,4.34-17.65c12.92-18.61,24.59-38.09,37.07-57,15.06-22.84,30.52-45.42,45.67-68.2,9.59-14.42,18.91-29,28.43-43.49,11.54-17.55,22.91-35.2,34.79-52.52,18.3-26.68,36.91-53.14,55.49-79.63q29-41.37,58.25-82.59,21.13-29.8,42.53-59.41c5.09-7,10.53-13.79,16.14-20.4,7.07-8.33,11.72-8.51,20.16-1.4,4.59,3.86,9.16,7.76,13.83,11.53a35.41,35.41,0,0,0,4.72,2.68c23.47-25.12,53.54-41.68,80.43-62.37,14-10.78,27.23-22.59,41-33.64,6.28-5,12.5-9.79,15.11-17.88a10.7,10.7,0,0,1,3.54-4.8c14.17-11,18.8-28.61,30.37-41.54-13.93-12.21-27.23-23.8-40.45-35.49-4.5-4-8.93-8.06-13.16-12.32-6.31-6.36-8.75-13.7-6.51-22.81,6-24.31,19.1-44,38.47-59.37,5.83-4.62,13.5-7.32,20.75-9.56,3.22-1,8,.47,11.18,2.29q37,21,73.56,42.69a19.76,19.76,0,0,0,12.88,3.07c16.74-1.43,33.32,1,49.65,4.54,37.27,8.07,71.41,23.88,104.19,42.93,11.53,6.7,23,13.54,34.5,20.28,5.69,3.34,7.73,8.62,6.13,14.56-2.68,9.93-5.2,20.11-9.58,29.35-15.06,31.75-33.48,61.59-55.91,88.65-12.52,15.11-26.63,28.91-40.24,43.09-7.9,8.22-17.9,12.64-29.14,14.17.85,9,1.67,9.85,9.62,10.25,9.37.48,9.18.48,9.33,10.31,0,2.34,1.44,4.87,2.8,6.93s3.44,3.65,5.7,6c-11.22,1.5-13.36-.46-16.12-13-5.32-2.33-11.53-3.36-14.88-7-3.21-3.51-3.44-9.75-4.51-13.25-56.57-38.51-105.23-81.88-126-150.22-3.09,4.23-5.59,7.62-8,11s-4.94,7-7.5,10.65c1.48,1.92,2.72,3.46,3.88,5,8.63,11.75,7.31,24.62-4,33.68-2.61,2.08-6.5,2.93-10,3.49a39.89,39.89,0,0,1-10.75,0c-13.43-1.48-23.17,4.74-32.9,13.3-24.29,21.37-49.38,41.85-74.07,62.79-7.6,6.45-14.92,13.24-22.69,20.16,10.31,6.54,10.11,16.49,8.11,26.6s-10.56,15.68-17.5,21.19c14.93,37.1,29.52,73.59,44.32,110q9.79,24.12,20.39,47.91c1.39,3.14,3.81,6.48,6.67,8.2,14.18,8.51,15.46,20,7.69,32.08-1.43,2.23-3.13,4.3-4.78,6.54,12.07,33.53,14.34,68.92,19.35,105.08,13.52,0,26.79,0,40.07,0,9.65,0,19.31-.12,29-.13a16.92,16.92,0,0,1,13.24,5.36c11,11.11,22.8,21.4,34.3,32,5.62-11,11-21.54,16.3-32.11,7-14.1,8.35-29.45,9-44.78,1.2-28.28,1.85-56.59,2.7-84.89.45-14.84,4.25-20.12,18.68-24.45,8.95-2.68,18-5,27.5-1.85,9.91,3.3,15.76,10.09,15.95,20.52.16,8.63-1.21,17.29-1.09,25.92.19,12.89.88,25.77,1.77,38.63.46,6.61,1.82,13.17,2.75,19.75,2.64,18.87,10.41,35.93,20.3,51.76,7.08,11.34,9.71,23.3,10,36,.28,13.63-.41,27.27-.38,40.91,0,14.66.37,29.32.62,44,.7,41.06,0,82.08-3.77,123-.55,5.93-2.33,11.74-3.78,18.77l17.46,2.26c0-9.14-.08-17,0-24.88.43-34.34,1.79-68.68,1.18-103-.9-51.38-3.49-102.73-4.77-154.11-1.47-59.08-2.69-118.18-3.25-177.28-.38-40.12,3-80,9-119.75a38.79,38.79,0,0,1,8.95-19.7c4.74-5.66,10.14-9.5,17.93-9.32,18,.41,36,.66,54,.91,6.6.09,13.21,0,19.17,0,7.32-12.14,14.5-24.07,21.72-36,1.38-2.28,2.6-4.83,4.49-6.61,16.74-15.75,32.87-32.78,54.63-41.41,29.42-11.67,59.33-22.17,89.31-32.37,25.52-8.68,47.66-22.26,66.14-41.79,3.37-3.55,6.1-7.71,9-11.35-6.13-8.72-12.19-16.32-17.11-24.6-5.94-10-11.85-20.22-16.06-31-5-12.86-12.42-23.36-23.45-31.41a22.71,22.71,0,0,0-6.91-3.79c-13.59-3.78-23-12.58-30.9-23.85-13.62-19.42-18.78-41.81-23.09-64.42-1.91-10,.72-20,4.22-29.43,5.44-14.65,19.69-17.71,31.07-6.88,2.12,2,3.68,4.63,5.5,7l2.15-1.2c-.74-6.31-1.62-12.61-2.19-18.93-.84-9.29-1.74-18.59-2.08-27.9-.32-8.73,6.53-13.45,11.86-18.82a30.53,30.53,0,0,1,5.56-4c1.55-9.46,2.66-17.27,4.14-25,1.69-8.83,8.14-13.23,16.26-13.86,7.87-.62,12.06-4.47,15.1-11.06,1.81-3.92,4.38-7.49,6.38-11.34,4.76-9.12,12.38-14.47,22-17.7,4.65-1.58,9.66-3.2,13.35-6.23,7.37-6,15.44-8.08,24.32-6a55.93,55.93,0,0,0,38.92-4.53c8-4,16.53-3.23,24.52-1.1,9.18,2.45,17.75,1.66,26.53-.94,5.74-1.71,11.55-3.16,17.74-4.84.44-13.18,4.34-25.05,12.82-37.46,3.82,8,.44,13.31-1.12,18.64s-3.71,10.67-5.31,15.18c7.6,4.3,14.54,8.38,21.64,12.17a40.63,40.63,0,0,0,9.26,3.61c9.25,2.29,12.7,6.43,11.09,16.43a31.91,31.91,0,0,0,2.06,18.54c1.87,4.22,4.38,8.15,6.87,12.69,5.19,0,10.17-.22,15.14,0,8.42.45,12,3.26,14.51,11.21a45.33,45.33,0,0,1,1.95,9.78c1.33,16.93,2.48,33.88,3.66,50.82.25,3.6.4,7.2.66,12.18,2.88-1.69,4.72-2.68,6.47-3.81,7.2-4.66,12.31-3.58,16.76,3.64a10.54,10.54,0,0,1,1.2,2.75c3.94,14.89,7.18,29.93,4.8,45.41-2.23,14.48-4.76,28.94-7.77,43.28-2.37,11.33-4.16,23.27-16.71,29-1.39.63-2.62,3.09-2.73,4.78-2.14,30.87-9.69,60.48-20.24,89.44a18.77,18.77,0,0,0-.68,3.36c12.51,17.54,29,28.38,48.72,35.71,12.63,4.7,23.73,13.39,36.13,18.92,17.58,7.82,33,19,47.77,30.73,9.73,7.77,17.95,18.1,24.85,28.6,10.4,15.83,19.22,32.73,28.35,49.37,2.86,5.22,4.52,11.09,6.79,16.64,1.24,3,2.6,6,4.07,9.4,18.47,0,36.48-.2,54.48.06,21.37.3,42.74.9,64.11,1.63a47.16,47.16,0,0,1,12.74,2.25c11.41,3.67,18.84,11.17,20.55,23.43.5,3.63.64,7.31.85,11,.61,10.65,1.38,21.3,1.71,32q.58,18.51.5,37c-.1,29.71-.5,59.42-.55,89.13q-.13,82.65,0,165.29c0,38.72.51,77.45-.07,116.16-.63,41.39-2.27,82.77-3.46,124.16-.07,2.33,0,4.66,0,7,8.59,5.77,38.12,11.34,50,11.05-1.39-2.26-2.37-4.18-3.65-5.88-16.37-21.77-28.84-45.63-38.47-71-3.15-8.34.54-14.82,6.46-19.46,27.82-21.83,55.77-43.51,84.11-64.66,17.63-13.17,36.06-25.27,54.06-38a54.87,54.87,0,0,0,7.44-6.62c5.2-5.33,7.83-6.36,13.53-1.71a79.63,79.63,0,0,1,16.26,17.35c6.77,10.28,12.21,21.44,18.12,32.27,2.42,4.45,5,8.34,9.93,10.76a22.55,22.55,0,0,1,8.77,7.9c6.26,10.06,15.92,13.37,26.71,15.61,18,3.74,35.65,8.6,50.76,19.83,1.33,1,3,1.73,4,3,11.18,14.65,26.91,14.27,42.76,12.75,11.95-1.14,23.79-3.85,35.75-4.49,17.51-.93,34.63.12,47.77,14.83,4.81,5.39,11.52,8.66,19.25,9.78,6.17.9,12.3,2.76,16.6,8.36,1.24,1.61,4.8,2.42,7,2,5.45-.89,12.24,3.2,16.17-5,1.07-2.24,7.27-2.27,11.18-2.83,4.56-.66,7.29,1.58,9.16,5.91.6,1.41,4,1.76,6.15,2.34,14.43,3.88,29.12,7,43.24,11.77a74.45,74.45,0,0,1,22.57,12.5c24,19.57,47.19,40.25,71.28,59.75,16.51,13.37,32.84,27.26,52.43,35.7,1-.27,1.89-.23,2.25-.63,10-11.12,22.2-10.84,34.94-6.41,4.7,1.63,9.1,4.16,13.59,6.36,8.93,4.38,8.92,4.4,7.73,14.19,7.07,4.44,15.94,6.43,21.13,15.35-10.83,4-17.21-5.22-26.61-6.86-2.06,4.86-4.17,9.87-6.26,14.8,8.7,4.55,17.91,6.08,25,14.88-3.93,0-6.45.48-8.7-.1-4.51-1.16-8.84-3-13.32-4.31-1.81-.51-4.69-1.08-5.63-.15-5.9,5.84-11,1.86-16.27-.79-3.87-2-7.54-4.32-11.46-6.16-8.51-4-15.15-9.82-18.53-18.71-1.55-4.08-4.27-6.06-8.12-8a193.25,193.25,0,0,1-24-14.28c-24-16.94-46.08-36.32-67.76-56.16a359,359,0,0,0-34.89-28.5c-14.09-10-30.68-15.12-47.49-17.62-15.39-2.29-31.2-1.75-46.14-2.42-3.56,5.64-.44,8,2.3,10.42,10.54,9.24,14,20.63,10.29,34.93a61.51,61.51,0,0,0,7.51,1.67c16.26,1.59,32.52,3.16,48.81,4.52,7.63.64,15.33.6,23,1.23,8.86.73,14.92,6.56,14.65,15.46-.37,12.6-1,25.33-3.18,37.71-1.77,10.09-10.43,13.75-19.91,14.28-16.59.94-33.21,1.38-49.8,2.2-7.93.4-15.84,1.19-23.93,1.81,0,30.46.12,60.41-.05,90.35-.11,18-1.22,36-.92,54.06.46,27.29,1.76,54.58,2.69,81.87.35,10.35.77,20.69.94,31.05.56,34.05,1.17,68.1,1.45,102.16.19,23.7,0,47.42-.27,71.12-.41,34.4-1.47,68.79-1.53,103.18-.05,28.68,1.3,57.36,1.4,86,.1,29-.65,58-.91,87-.18,19-.16,38.05-.23,57.07ZM1571.44,638.64l-27.92,12.48.33,1.34L1562,651l9.22-12.51,10.35-3.77C1577.08,633.69,1572.37,632.56,1571.44,638.64ZM856.31,1573.7c3.93-2.21,8-4.2,11.75-6.67,8.08-5.33,16-10.9,24-16.38-5.22,4.59-10.36,9.25-15.66,13.74-8.36,7.1-16.83,14.1-25.26,21.14,5.57-.36,10.3-1.77,15.05-3.09q30.76-8.58,61.56-17.07c2.9-.8,5-1.41,6.52-4.92,2.3-5.34,8.16-6.73,12.21-3,5.16,4.82,8.49,2.32,13.28-1.18-11.26-5.55-21.93-8.09-33.53-6.06-3.41.6-7.75,2.56-10-1.44s-5.69-3.65-8.61-3c-5.4,1.19-10.57,3.39-15.87,5.18-.84-1-1.62-2.72-2.54-2.79-12.44-1-24.9-1.56-36.51-.35-.2,4.25.87,9.37-.78,10.49-2.94,2-7.52,1.57-12.56,2.34.68,7.68,1.48,16.65,2.27,25.61l2.26.75,12.69-13.46Zm739.43-903.59c.54,6.67-3.07,10.89-7.76,15.18-8.45,7.75-8.19,13.53,0,21.63l13.14-2.26c.3-3.39-.25-7,1-9.88,2.66-5.9,1.6-10.8-1.8-15.84-1.83-2.71-3.2-5.75-4.77-8.64.31-1.34.62-2.67.94-4,4,5.87,5.14,10.22,7.51,13.69,3.76,5.52,4.27,10.75,2,17-1.43,4-2,8.59,2.85,12.37l8.69-3.4c-1.07-6.22-2.74-11.71-2.74-17.21,0-4.09-.95-6.59-3.86-9.45-5.89-5.82-5.62-13.42.19-19.94,2,7.07-2.85,17.42,9.47,19.43,1.64-1.88,3.36-3.85,4.95-5.69-5.64-12.82-4.69-15.53,7.45-22.11,6-3.27,8.22-7.71,7.6-14.74-.15-1.77.37-3.6.8-7.26,6.93,9,2.32,15-.79,21.13a55.2,55.2,0,0,1,5.22,5,66.17,66.17,0,0,1,4.13,6.52c-4.43,1.69-5.56-2.48-8-3.25-3.76-1.2-8.4-2-12-.78-3.31,1.1-3.56,5.2-1.27,8.14,4.81-.31,9.77-1.89,13.72-.54s6.85,5.64,10.58,9c4.69-6.88,4-14.21,1.81-20.57-4.92-14.63-5.42-14.46-4.83-24.11-6.2.75-12.18-5.69-18.91.4q2.67,7.29,5.3,14.48c-7.23,3.44-7.62,3.18-11.09-7.73-7.68-.82-15.45-1.36-23.21,1.49,1,7.08,6.64-.08,8.53,3.6l-11,14.42c.3-4.62.45-6.95.62-9.51C1589.3,655.19,1588.13,661.45,1595.74,670.11Zm-189.39,515.57c0,.41,0,.83,0,1.24q-81.09-1.28-162.18-2.6c-15.07-.26-17.71,1.56-21.2,16.34a41.74,41.74,0,0,0-1.11,6.92c-2.09,36-5.16,71.93-5.88,107.94-.71,35.67.89,71.38,1.63,107.07.7,33.35,1.68,66.69,2.4,100,.87,40.37,1.81,80.74,2.31,121.11.27,21.69-.25,43.38-.53,65.07-.2,16.32-.65,32.64-.84,49-.1,8.38,3.55,13.64,9.58,13.94,10.65.54,21.31,1,32,1.23,26.85.47,53.72.39,80.56,1.23,24,.75,47.86,3,71.81,3.58,42.69,1,85.41,1.22,128.12,1.64,38.31.37,76.63.72,114.94.8,41,.1,82-.21,122.94-.19,34.73,0,69.46-.12,104.18.49,37.71.66,75.41,2.18,113.12,3.17,13.35.36,26.72.44,40.07.37,15.65-.09,31.3-.42,46.94-.76,6.22-.13,10.37-3.47,13.82-8.56,5.43-8,5.55-17,5.54-26q0-40.5-.15-81-.26-99.11-.54-198.22c-.11-30-.43-60-.67-90.08-.33-42.05-.74-84.1-1-126.16-.08-12.63.31-25.26.28-37.89a141.82,141.82,0,0,0-.91-18c-1.41-10.63-3.39-12.56-13.77-13.59a237,237,0,0,0-25-1.42c-36.7.27-73.39,1.13-110.09,1.2q-63.62.12-127.07,4.18c-25,1.63-50,1.66-75.09,2-18,.27-36-.2-53.94-.13-27.38.11-54.76.82-82.13.51-32.68-.38-65.34-1.64-98-2.36C1479.75,1187,1443.05,1186.38,1406.35,1185.68ZM486.42,1905.8c2.94.2,4.9.45,6.85.45q51-.09,101.93-.21t102,0c25.35,0,50.69-.25,76-.12,17,.09,34,.64,51,1,28,.61,56,1.86,84,1.69,35-.2,69.92-1.72,104.88-2.38,22.69-.43,45.39-.2,68.08-.51,24.93-.34,49.85-1,74.78-1.45,18-.29,36-.21,53.92-.55,11.32-.21,22.63-1.25,33.94-1.28,15.24,0,30.49.64,45.73.81,25.6.28,51.21.23,76.81.66,19.3.33,38.59,1.38,57.89,1.77q47.41.94,94.84,1.43c31.62.38,63.23.53,94.84.88,21.36.24,42.71.79,64.07.93,24.66.16,49.34.37,74-.11,22.23-.43,44.43-2.38,66.65-2.53,26.31-.17,52.62.92,78.93,1.35q35,.57,70,.88c19.29.19,38.59.25,57.88.37,2.34,0,4.68.07,7,0,17.29-.37,34.58-1.07,51.87-1.06,24.62,0,49.24.53,73.86.87,22,.31,43.93.83,65.89,1,31.33.23,62.67.13,94,.39,9.32.08,18.64,1.21,28,1.3,6.3.06,12.66-1.58,18.91-1.16a337,337,0,0,0,39.7.32c26-1.34,52-.54,78-1.06,14.3-.29,28.58-1.47,43.65-2.29v-40.28c-5.76.44-10.69,1.18-15.6,1.14q-35.28-.28-70.53-.92-46.4-.8-92.76-1.79c-19.59-.42-39.17-1.45-58.76-1.44-21,0-42,1.11-62.94,1.43-28.36.43-56.73.81-85.09.79-38.07,0-76.14-.55-114.21-.7q-66-.26-131.92-.23c-26.66,0-53.32-.23-80,.31-66.77,1.36-133.53,1.77-200.26-1.5-36.31-1.79-72.62-3.93-109-5.45-32.33-1.34-64.68-2.16-97-3-41.65-1.08-83.31-1.85-125-2.9-37.72-1-75.44-2.18-113.16-3.18-24.35-.64-48.7-1-73-1.65-46.27-1.17-92.52-2.78-138.79-3.51-37.34-.59-74.7-.35-112-.06-15.65.13-31.29,2-46.93,1.93-23-.06-46-1.58-69-1.62-20.63,0-41.27,1.3-61.9,1.65-31,.54-62,1.26-93.05.92-26.66-.29-53.3-2-79.95-3-2.88-.1-5.79.56-9,.91ZM1768.08,693.44c-16.7-.48-32.33-1.18-48-1.28-11.65-.08-23.69-1.12-34.87,1.37-18.44,4.12-36.62,9.67-53.69,18.51-9.67,5-20,9.52-30.64,11.63-19.39,3.87-39.13,3.28-58.78.3-10.49-1.58-21.12-3-31.71-3.09a36.92,36.92,0,0,0-24.87,9c-4,3.4-5.43,7-4.42,12.21,2.4,12.44,4.27,25,6.42,37.48,3.28,19,6.09,38.18,10,57.08,6.44,30.7,16.8,60.3,27.66,89.63,14.17,38.27,38.09,69.51,72.47,91.89,15.71,10.22,32.53,18.45,52.3,17.41,33.06-1.74,62-13.08,84.46-37.74,7.72-8.48,14.68-18.64,18.71-29.27,6.82-18,11.46-36.89,16.18-55.62a155.76,155.76,0,0,0,4.33-29.63c.71-13.61.41-27.28.12-40.92-.71-34-1.44-68-2.6-101.95C1770.72,724.9,1769.18,709.36,1768.08,693.44Zm-1483,1420.3c-1.2-3.83-2-7-3.2-10.11a54.14,54.14,0,0,1-1.39-36.11c4.17-14,8.32-28.44,9.24-42.9,1.88-29.19-4.08-56.95-20.73-81.91a185,185,0,0,1-27.86-67c-1.59-8-3.09-16-4.71-24.35-4.65,4.93-8.92,9.49-13.23,14-10.34,10.86-21.56,21-30.78,32.76-8.86,11.27-14.42,24.31-15,39.48a265.21,265.21,0,0,1-5.22,44.6c-3.53,16.86-11.2,32.07-25,43.42-5.92,4.87-12.14,9.47-17.48,14.93-12.1,12.39-23.85,25.12-35.49,38-4.16,4.58-7.17,9.89-2.73,15.38,7.17-3.79,13.87-8.25,21.21-11,10.58-3.9,20.51-1.61,28.21,7,7,7.79,5.39,16.43,2.07,25.38-13.83,37.33-31.87,72.66-51,107.49-2,3.75-5.16,6.93-7.91,10.27-4,4.9-9.4,6-15.38,5-8.11-1.34-14.52-5.15-17.43-13.2-2.64-7.3-4.85-14.76-7.28-22.25-5.76,3.84-5.64,3.87-7.29,9-8.06,24.84-4.44,50.21-3.47,75.45a12.48,12.48,0,0,0,.39,2,173.34,173.34,0,0,0,25.54,60.34c16.33,24.35,35.87,43.17,65.83,49.93,37.78,8.53,73.45,4.57,107.05-14.57,14-8,26.64-18.12,34.45-32.64,6.92-12.88,13.23-26.13,19-39.58,8-18.64,10.52-38.41,10.17-58.59-.06-3.59.61-7.57-4.69-9.33-.57,1.44-1.22,2.83-1.67,4.28-5.68,18.29-30.38,22.33-41.51,6.48-3.58-5.11-7.44-10.66-8.82-16.56-4.47-19.1-8.63-38.35-11.42-57.76-2.28-15.78-2.4-31.86-3.53-47.81a39,39,0,0,1,3.58-19.43c6-13.08,20.62-22.35,36-6.16,3.65,3.84,7,8,10.63,12.23C277.8,2117.87,280.94,2116.09,285.08,2113.74Zm2399.55-304.66c-9.07,0-17.33.26-25.57,0-27.31-1-54.61-2.49-81.93-3.22-36.67-1-73.35-1.73-110-2-40.33-.33-80.67-.23-121,.06-27.93.2-55.84,1.1-83.77,1.58-30.53.52-61.07.62-91.59,1.44-42.37,1.14-84.78-.62-127.13,2.59-20.5,1.55-41.15,1.68-61.72,1.47-35.32-.36-70.64-1.37-106-2.35-24.63-.68-49.24-2-73.87-2.59-26.91-.64-53.82-.74-80.73-1.13-34-.5-68-1.09-101.95-1.55-24.66-.34-49.32-.31-74-.86-18.56-.4-37.11-1.75-55.68-2.14s-37.15.09-55.73-.13c-21-.26-42-.66-63-1.38-24.67-.84-49.32-2.34-74-3.12-29.69-.93-59.41-1.18-89.1-2.13-31-1-61.88-3.29-92.83-3.48-22.93-.14-45.88,2.15-68.83,3.41-8.64.47-17.27,1.46-25.92,1.59-19.87.27-39.75.28-59.63.15-7.31,0-14.61-1-21.93-1.12-13.22-.23-26.45,0-39.68-.25-21-.36-42-.92-63-1.41-13.3-.31-26.6-.74-39.9-1-25-.44-49.93-1-74.89-1.09-23.81-.12-47.63.4-71.45.37-15.85,0-31.69-.62-47.54-.79-19.37-.22-38.74-.22-58.1-.4-29-.28-58-1.13-87-.83-33.32.35-66.64,1.79-100,2.55-13.24.3-26.49,0-40.62,0,.58,7,1.05,12.77,1.5,18.19,6.29,0,11.57-.17,16.85,0,20.23.78,40.45,2.24,60.68,2.37,19.22.12,38.35-2.13,57.71-1.3,25.79,1.11,51.7-.45,77.55-.57,19.53-.09,39.06.3,58.59.46,20.59.16,41.18.35,61.78.4,10.33,0,20.67-.53,31-.28,33.57.8,67.14,1.51,100.73,1.61,24.61.08,49.22,1,73.84,1.19,27.61.25,55.23,0,82.84.27,10,.09,19.89,1.3,29.85,1.44,6.62.1,13.27-1.4,19.87-1.12,23.24,1,46.46,2.62,69.7,3.59,12.62.53,25.27.13,37.91.28,10.27.13,20.54.54,30.81.69,3.92.06,7.87-.5,11.78-.33,7.64.34,15.26,1.31,22.89,1.48,20.29.44,40.57.6,60.86.87,10.64.15,21.28.47,31.92.41,14.28-.08,28.58-1,42.85-.57,19.92.59,39.8,2.66,59.72,3.07,29.61.6,59.23.41,88.85.34,35.63-.08,71.28-1,106.9-.45,40.57.59,81.12,2.55,121.69,3.51,19.93.47,39.77,3.26,59.81,1.44,7.53-.69,15.24.76,22.88,1.16,8.3.45,16.63,1.34,24.91,1.1,15.3-.45,30.58-1.75,45.87-2.37,16.92-.68,33.8-1.38,50.79-.31,18.58,1.17,37.26.72,55.9,1,16,.24,31.93.57,47.9.74,16.25.17,32.51,0,48.75.34,17,.33,34,1.17,51,1.6,15,.38,29.95.26,44.9.81,17.64.65,35.25,2.1,52.88,2.67,32,1,64,1.65,96,2.48,26.34.67,52.67,1.69,79,2q37,.48,74-.2c36.31-.64,72.54-4.73,108.94-2,15.92,1.18,31.92,1.29,47.89,1.67,11,.26,22,.39,33,.15,16-.35,32-1,48-1.69,5.51-.24,11-1,17-1.6Zm-857.35-638.59,122-5.83c-3.69-8.55-6.33-16.43-10.33-23.54-7.5-13.31-16.43-25.84-23.56-39.34-6.1-11.54-15.28-20.28-24.07-29.24a108.48,108.48,0,0,0-23.88-18c-17.93-10.18-36.45-19.32-54.77-28.8-7.33-3.8-14.77-7.36-21.73-10.81-1.37,1-2.11,1.3-2.38,1.82-12.08,23.12-28.89,42.39-48.8,59-15.24,12.69-31.76,23.32-51.62,27.36-11.41,2.32-22.84,4.81-34.39,6.13-23.64,2.71-46.79,1.08-67.59-12.12-11.24-7.14-22.42-14.47-32.92-22.63-6.19-4.82-11.39-11.12-16.31-17.33-4.71-5.93-8.48-12.61-12.71-19-5.47,3.63-10.26,7.24-15.43,10.17-29.5,16.73-61.66,27-93.75,37.07a162.44,162.44,0,0,0-47.23,23.52c-17.81,13-33.8,28.37-41.49,50.14-.71,2-1.1,4.09-1.73,6.53h160.73c1.3-4.79,2.43-9,3.55-13.1,8.39,1.86,7.16,9,9.57,13.27,35.5,5.4,298.66,8.8,314.93,4.26,1.26-4.77,2.48-9.35,3.69-13.93l2.57-.27C1822,1160.27,1824.33,1164.79,1827.28,1170.49ZM835,1210c-8.61,12.78-15.73,23.62-23.11,34.27-14.81,21.36-29.53,42.79-44.72,63.89-21.4,29.74-43.37,59.08-64.77,88.83-20,27.86-39.74,56-59.43,84.09-5.18,7.4-9.76,15.21-14.8,23.13,49.19-2.35,97.08-5.69,145-6.63,48.16-.93,96.37.53,144.24.93a13.65,13.65,0,0,0,1-2.8,257.65,257.65,0,0,0-13.8-92.44,16.74,16.74,0,0,0-3.75-5.68c-5.13-5.47-6.93-11.91-6.71-19.27a27.13,27.13,0,0,0-1.24-9.67q-21.92-62.76-44.2-125.39C844.87,1232.69,840.13,1222.46,835,1210Zm277.78,398.43a28.92,28.92,0,0,0-4.26-.92c-38-.21-76.1-.73-114.14-.48-39.35.25-78.7,1.32-118.05,1.89-37,.54-74.07,1.66-111.09,1.13-42.68-.61-85.33-2.84-128-4.19-22.63-.72-45.28-1-67.92-1.57-23.33-.55-46.66-1.16-70-1.64-2.53-.05-5.08.56-8.13.92,1.62,17.93,3.25,35.15,4.71,52.38.41,4.94,3.55,7.07,7.72,7.82,7.22,1.3,14.49,2.83,21.77,3.11,31.32,1.2,62.66,2.74,94,2.73,47,0,94-1,141-2,44.66-1,89.31-2.84,134-3.9,26.34-.63,52.71-.06,79-.75,36.65-1,73.29-2.57,109.92-4,8.56-.34,17.1-1.16,26.49-1.81C1110.77,1640.8,1111.74,1624.92,1112.75,1608.43Zm165.08-661.15c-2.77-1.94-5.67-4-8.65-6-23.45-15.51-48.61-27.78-74.6-38.26a242.49,242.49,0,0,0-80.55-17.8c-13.63-.6-23.64,4.37-32.66,13.56-17,17.35-29.56,37.66-40.3,59.26-4,8.07-6.49,15.81-.51,24.08,1.52,2.09,2.15,4.85,3,7.37,6,17.85,15.47,33.84,26.09,49.31,14.88,21.67,33.51,39.71,53.37,56.59,9.6,8.16,19.69,15.73,30.16,24.05,1.21-2.93,2.09-5,2.92-7.06,3.46-8.65,6.21-17.65,10.5-25.86,8.47-16.22,17.57-32.11,26.8-47.92,15.21-26,32.5-50.44,56.41-69.43C1258.87,962,1268.05,954.9,1277.83,947.28ZM809.46,1119.6c-34.82,51.33-69.63,103.4-105.25,154.92q-53.79,77.76-105.19,157.1c-33.93,52.45-70.21,103.36-104.68,157.32,14.9-.67,28-2.77,40.73-1.42,14.35,1.52,21.79-3.73,29.12-15.75,18.92-31,39.43-61.07,59.68-91.26,15.78-23.52,31.94-46.78,48.28-69.91,10.77-15.25,22.25-30,33.23-45.1,19.23-26.43,38.17-53.06,57.5-79.41,19.54-26.62,40-52.56,58.88-79.65,9.45-13.59,16.19-29.07,24.15-43.7,2.37-4.36,2-8.18-1.87-11.66C832.47,1140.66,821,1130.12,809.46,1119.6ZM2186.05,1786c11.29-4.54,21.61-8.24,31.55-12.76q56.37-25.65,112.54-51.76c5.59-2.58,11-5.53,17.07-8.59-22-42.31-42.71-84-67.79-123.37-52.27,33.77-98.73,73.44-145.73,112.2C2149.34,1731.91,2163.47,1761.33,2186.05,1786Zm166.86-108.12c16.55,2.39,18.15,3.17,23.05,11.39l-19.93-6c3.43,6.69,5.66,11,8.13,15.83,11.45-3,19.07,2.79,24.84,11.11,6.43,9.29,12.35,19,17.85,28.85,3,5.3,6.35,9,12.43,10.44,11.33,2.68,21.15,7.81,27.89,17.91,2.2,3.29,5.76,5.66,7.94,9,3.17,4.79,7.53,6.21,12.79,6.14,6.31-.09,12.64-.61,18.93-.32,31.94,1.43,63.88,3.07,95.81,4.61,6.7.32,16.26-6.44,15.16-11.42-1-4.65-2.83-10.63-6.32-12.92-7.77-5.09-10.63-11.37-10.1-20.14.13-2.23-.92-4.55-1.48-6.81-1.1-4.37-4.19-7.5-8.34-7.57-13.91-.25-23.56-8.25-33-16.94-4.84-4.47-10.41-7.46-17.06-7.4-9.64.09-19.37-.08-28.91,1.1-14.54,1.79-29,3.77-43.71,2.91-11.61-.68-21.52-4.49-29.27-13.16a52,52,0,0,0-21.49-14.18c-7.2-2.63-14.42-5.22-21.75-7.43-4.76-1.44-9.77-2-14.6-3.29-4.61-1.18-9.12-2.7-15.49-4.62C2349.23,1670.67,2351.17,1674.47,2352.91,1677.91Zm-812-653.57c3.36,5.27,7,10.08,9.67,15.39,6.89,13.78,18.2,24,29.32,33.67,20.84,18.12,46.6,22.63,73.2,18.8,16.35-2.35,32.45-7.32,48.26-12.39,8-2.58,16.26-6.78,22.52-12.36a557.27,557.27,0,0,0,39.68-39.45c5.47-6,8.84-13.82,13.2-20.88-5.9-5.3-10.79-9.71-15.8-14.22a9.38,9.38,0,0,0-2.31,1.78c-13.09,19.67-30.83,33.94-51.88,44.21-13.87,6.77-28.74,10.37-44,12.37-13,1.71-26.36,2.7-38.64-2.07-18.94-7.36-37.64-15.6-52.38-30.49-4.82-4.88-10.22-9.18-15.68-14ZM1088.12,879.22l-74-43.94c-20.19,5.86-32.69,19.19-44,33.85-7.28,9.42-10.94,20.47-13.42,32-.82,3.85-.39,6.73,3.07,9.61,19,15.76,37.63,31.9,56.52,47.76,3.69,3.1,7.94,5.53,12.51,8.66C1041,932.12,1061.77,904.34,1088.12,879.22ZM426.62,1734c3.5,0,6.08.15,8.65,0,9.62-.68,19.22-1.92,28.84-2.12,28-.61,56-.53,84-1.29,24-.65,47.94-2.1,71.9-3.17,4.81-.22,9.62-.34,14.67-.52.05-13,2.53-25-.29-36.43-18.68-.87-36.58-2.24-54.48-2.42q-56.52-.55-113,0c-11.87.13-23.72,2-36.52,3.17C429.11,1705.53,427.93,1719,426.62,1734Zm674.31-244.67c-2.68,12.79-7.83,24.17-14.21,35.23-3.57,6.19-5.57,13.47-7.27,20.5-.66,2.72.61,6.76,2.44,9.07,5.34,6.78,11.4,13,16.71,18.89,3.65-1,5.22-1.42,6.81-1.83,27.83-7.18,48.95,2.45,62.11,28.35,2.63,5.16,5.09,10.41,8.55,17.5,0-27.6.17-52.9-.09-78.19a45.34,45.34,0,0,0-6.89-23.62c-4.17-6.79-7.41-14.15-11.17-21.19-1.38-2.57-3.09-5-4.49-7.18C1135.71,1486.1,1118.72,1484.88,1100.93,1489.31Zm1120.73,294.12c67.29,2.65,133.12,1.49,198.6-21.29-14.52-2.29-21.87-10.15-26-21.72a46.67,46.67,0,0,0-4.41-9c-3.89-6.18-7.83-12.35-12.16-18.23-2.44-3.33-5.86-5.53-9.27-4-2.31,3.57-3.72,8.22-5.79,8.53-6.81,1-10.66,6.53-16.34,9.09-20.35,9.17-40.55,18.67-60.85,27.94s-40.71,18.41-61.07,27.6C2223.51,1782.82,2222.57,1783.1,2221.66,1783.43ZM601,1545.51c8.82,0,15.81-.33,22.75.09,7.36.44,13.31-2.09,19.65-5.69,21.85-12.37,45.45-18.72,70.74-18.13,15.3.35,30.6.86,45.91.78,38.66-.2,77.32-1,116-1,16.65,0,33.29,1.6,49.95,2.12A182.12,182.12,0,0,1,992,1537.84c2.45,1,4.68,2.61,7.14,3.61,3.27,1.31,6.26.48,7.14-3.08,1.83-7.31,3.16-14.75,4.89-23.12-10.19,0-18.76.16-27.33,0-29.67-.67-59.34-1.75-89-2.12-35.71-.45-71.44-.73-107.15-.35-27.31.28-54.63,1.36-81.92,2.7-28,1.38-55.86,3.57-83.8,5.22-3.27.2-5.72.78-7.53,3.72C610.41,1530.88,606.23,1537.24,601,1545.51Zm-543.62,649c.77,5.46.85,9.56,2,13.33,1.54,5,3.18,10.31,6.1,14.56,4.4,6.4,10,6,14.65,0a25.4,25.4,0,0,0,2.63-4.24c12.64-25.33,25.55-50.53,37.72-76.08,5-10.49,8.62-21.65,12.45-32.66,2.11-6.07.07-11.56-4.24-14.06-10.13-5.88-33.77,6.15-35.36,18-.13,1,.08,2-.1,3-1,5.88-1.87,11.83-3.29,17.63C85,2154,75.06,2171.57,61.71,2187.32,59.69,2189.7,58.39,2192.7,57.33,2194.46ZM359,1767.34c9.7,1.86,9.75,2,18.75-1.15,11.54-4,23.09-5.86,35.33-3.13,5.09,1.13,10.63.26,16,.3,6,.05,12-.24,17.87.25,9,.74,17.83,1.23,26.56-1.8a84.74,84.74,0,0,1,36.5-4.47,91.38,91.38,0,0,0,39.45-4.2c5.63-1.93,11.15-2,16.57.47,7.68,3.54,15.55,3.26,23.5,1.33,5.5-1.34,10.91-3.18,16.47-4.2,7.57-1.4,12.22,1.36,16.79,9.41-3.32,2.57-7,2.53-10,.23-4.71-3.56-9.27-2.62-14.19-1a80.3,80.3,0,0,1-12.55,3.39c-8.53,1.29-17.16,3-25.15-2.63a9.47,9.47,0,0,0-6.61-1.34c-6.7,1.38-13.29,3.34-19.92,5.08l.26,2.23c32.65,2,65.34,1.18,99.53,1.1-.33-7.56-.63-14.3-1-22.1-5.21,0-9.48,0-13.76,0-28.67.35-57.34,1.2-86,1-48-.37-96-.1-143.84,4-11.88,1-23.62,3.65-35.46,5.28-10.66,1.48-11.72,2.9-9.23,15.61Zm839.18-715.86c-17.08,21.83-33.54,56.74-32.69,69.64,7.16.39,12.88-3.11,17.77-7.52a245,245,0,0,0,20.56-20.46,567.08,567.08,0,0,0,61.59-85c8.61-14.55,15.07-30.38,22.3-45.72.81-1.73.32-4.08.49-7.09-24.46,7.82-37,27.94-53.91,43,10.55,10.13,14.4,28.23,7.57,40.42C1231.09,1058,1214.73,1054.47,1198.16,1051.48ZM237.53,2136.37l-.93.08c2.42,23.51,4.57,47.05,7.34,70.52a111.29,111.29,0,0,0,10.87,37.19c2.61,5.19,6.93,8.24,12.89,7.59s9.35-4.42,11.06-10.09c2-6.68,1.27-13-1.16-19.46-10.58-28.22-14.52-57.28-10.45-87.29.26-1.9.63-4.47-.34-5.71a198.17,198.17,0,0,0-14.36-16.53c-2.72-2.77-6.59-2.12-8.93.67-2.49,3-4.88,6.5-5.77,10.16C236.77,2127.57,237.53,2132.06,237.53,2136.37Zm556.65-549.24.09-1.77c-1.51-.52-3-1.1-4.55-1.56-27.74-8.4-55.78-15.93-83.07-25.6-11.38-4-20.58-3.39-31.19,1a162.43,162.43,0,0,0-37.87,22c-2.68,2.1-5,4.67-7.5,7l1,2,14.51.81c-1-8.78.67-12.68,6.16-14.63,5.71-2,8.41,1.51,10.75,5.94l-5.13,8.94ZM279.49,2147.34a364.43,364.43,0,0,0,12.06,67.46,26.25,26.25,0,0,0,3.84,8.06c4.25,5.92,12.52,8,16.4,3.89,4.54-4.81,8.63-9.93,7.48-17.6-2-13.13-3.44-26.34-4.95-39.54a110.77,110.77,0,0,0-9.72-34.38,29.63,29.63,0,0,0-5.34-8.24c-3.87-3.95-7.32-3.84-11.21,0C282.46,2132.53,278.15,2138.74,279.49,2147.34Zm825.41-676.59,42.6-3.41c-2.19-22-4.27-42.9-6.39-64.17H1104.9Zm47.15,200.19-1.33-2.88c-8.31,0-16.63,0-24.94.06-1.59,0-4.08.2-4.63,1.17-3.75,6.7-10.24,5.11-16,5.72-4.88.51-9.76.87-14.9,1.32-1,10,3,17.24,10,22.11a15.24,15.24,0,0,1,6.72,10.38c.66,3.19,1.11,6.42,1.78,10.41,8.37.71,16.61,2.11,24.81,1.93,8.73-.2,17.37-2.28,22.93-10.1,8.79-12.4,11.74-26.38,11.34-41.87h-12.07c-6.36,12.47-9,14.49-16.24,13.27C1143.62,1678.71,1147.84,1674.83,1152.05,1670.94Zm-52.58-80.36-76.25-74.34c-2.28,12-4.05,22.07-6.16,32.06-.71,3.36,0,5.52,2.6,7.81,11.45,10.17,22.64,20.62,34.08,30.8,1.88,1.67,4.5,3.45,6.82,3.51C1073.11,1590.77,1085.67,1590.58,1099.47,1590.58Zm69.5,178.65c5.49-11.22,9.7-58.52,6.26-73.37-5.66,13.6-9.77,27.6-24.89,32.41-13.6,4.32-27.35,5.32-42.09-1.14.42,7.57.79,14,1.18,20.95,4.74.42,8.64.87,12.57,1.09,9.52.55,13.8,4.27,15.41,13.66.32,1.88.37,3.81.61,6.4ZM34.59,2189.82c4.2-3.28,8.8-5.68,11.68-9.41,4.6-6,8.3-12.7,11.93-19.35,8.45-15.5,16.13-31.35,20-48.71,1.39-6.17,2.22-12.43-2-17.94-6.61-1.26-10.43,2.62-13.46,7.06a141.4,141.4,0,0,0-10.18,17.12c-7.37,14.88-14.58,29.84-21.43,45C27.39,2171.87,27.38,2180.3,34.59,2189.82ZM917.46,1707c.57-5.61-2.69-5.58-5.75-5.6-9,0-18.05-.27-27.05.08-27.67,1-55.33,3.18-83,3.35-39,.23-78.11-1.26-117.17-1.31-12.91,0-25.84,2.08-38.73,3.5-1.37.15-2.53,2.25-3.79,3.46,1.49.94,2.88,2.34,4.49,2.7,1.89.43,4,0,6-.18,5-.45,10-1.42,14.91-1.39,37.68.24,75.35,1.25,113,.88,37-.35,74.06-1.94,111.09-3.2C900,1709,908.54,1707.77,917.46,1707Zm208.43,61.93c-2.15-3.22-3.14-6.57-5-7.2-7.51-2.52-15.27-5.74-23-5.9-56.31-1.24-112.56,1.16-168.8,3.81a23.76,23.76,0,0,0-4.7,1.22c-.4,4.22-.76,8.09-1.17,12.52H938.8l-2.33-5.32c9.29-.18,18.41,1,26.9-.85,10-2.16,19.81-2.83,29.7-1a91.84,91.84,0,0,0,41.54-2.12,42.25,42.25,0,0,1,21.68-.4c4.34,1,9.12.7,13.65.38,4-.27,7.84-1.89,11.79-2,9.07-.34,17.76.78,22.94,10.25Zm-62.74-91.21-17.24,1.51,15,8.88c-5,4.41-9.25,4.24-13.12,1.87-7.81-4.79-15-3.45-22.65.57-6.82,3.56-14.27,6-22.18,3.58-14.86-4.46-29.63-2.79-44.5,0a112.19,112.19,0,0,1-17.87,1.46c-1.74,0-3.52-1.54-6.57-3,7.66-1.33,13.58-2.13,19.4-3.42,19.28-4.29,38.42-8.11,58.3-2.8,7.52,2,14.78-1.27,21.17-6-36.32,2-72.67-.13-108.8,1.42,1.12,7.06,2,12.81,3,18.9,19.76,6.51,124.55-3.89,138.42-7C1064.84,1688.83,1064.1,1684,1063.15,1677.68Zm426.2-808c-.13-2.84,0-4.19-.29-5.44-3.37-14.21-6.8-28.4-10.37-43.23-12.46-.24-17.31-12.58-28.36-19.93-.21,5.91-.65,9.68-.4,13.4.36,5.63,1.23,11.23,1.83,16.85.43,4.13.14,8-4.86,8.84,8.73,29.84,25.69,52.15,50.82,54.68-1-11.85-8.77-18-19.11-21.79-1.25-.46-2.5-.93-3.71-1.49a30,30,0,0,1-15.79-15.91c-3.34-7.82-.18-19.31,6.75-24.11,4-2.75,7.3-2.74,9.33,2.49-2,2.05-4.09,3.79-5.78,5.83-5.48,6.63-5.25,9.69-.2,16.81C1474,863.42,1481.4,865.5,1489.35,869.68ZM916.82,1769c.41-.94.81-1.89,1.22-2.83-1.53-1-3-2.86-4.61-2.92-6.62-.23-13.26.23-19.89.15-38.29-.46-76.58-.86-114.86-1.55-38-.68-76-1.74-114-2.5-7.17-.15-14.34.29-21.3.46-.71,5.19,2.11,5.35,4.87,5.51,12.64.73,25.28,1.67,37.93,2.1,21,.69,41.95,1.43,62.93,1.45,31,0,61.93-.67,92.89-.76,15.65,0,31.29.64,46.94.86C898.24,1769.12,907.53,1769,916.82,1769Zm1.46-38.71a43.47,43.47,0,0,0-6.34-1.06c-19.3-.4-38.61-.81-57.92-1-7.29,0-14.59.71-21.89.85-21.35.4-42.7.95-64,.95-39,0-78-.39-117-.53-2.59,0-5.8-.79-7.6,2.71C669.32,1736.52,897.47,1736.28,918.28,1730.3Zm16.46-161L860,1589.51l.23.9h51.87c-2.11-5.48-.64-8.91,3.25-11.29,3.54-2.17,7.25-4,11.05-.73,3.48,3,1.13,6-.15,9-.19.44.33,1.17.75,2.49,2.3.11,4.89.29,7.48.35s5.24,0,7.7,0c5.28-10.49,14.31-11.86,22.1-3.78,1.28,1.33,3,2.9,4.69,3,6.82.63,13.69.76,21.26,1.11-.27-3,.15-5-.65-6.07-4.82-6.74-9.69-13.48-15-19.8-2.44-2.88-6.13-3.54-10.14-2.38-4.79,1.4-9.75,2.23-14.62,3.3C945.15,1575.62,942.65,1576.23,934.74,1569.32Zm-17.35,143.94c-4.5,0-7.79-.11-11.08,0-30.65,1.21-61.29,2.83-92,3.61-33.68.85-67.38.95-101.07,1.35-21,.24-42,.38-63,.68-2.65,0-5.3.79-7.94,1.21.11.92.22,1.83.34,2.74,91.46,2,182.88-2.46,274.74-1.64Zm-274.24,34.15-.51,2.91c1.13.45,2.24,1.23,3.38,1.3,10.55.6,21.1,1.3,31.66,1.55,30,.71,60.08,1,90.11,1.89,20.34.58,40.65,2.35,61,2.58,27.64.32,55.28-.32,82.92-.63,1.37,0,2.73-.85,6.27-2-3.78-1.6-5.4-2.89-7-2.9C821.66,1751.64,732.43,1747.11,643.15,1747.41Zm465-167.38c4.84,7.39,9.76,12.81,19,11,1.45-.29,3.29,1.39,6.69,3l-12.18,2.52c1.47,4.51,1.81,9.65,4.49,12.79,4.06,4.75,10.12,7.73,14.65,12.16,4.68,4.57,8.55,10,13,15.28,1.73-.1,3.72-.19,5.7-.35,2.2-.17,4.39-.42,6.49-.63.57-13.8-1.68-22.12-9.63-35.67C1147,1584.18,1132.35,1574.61,1108.17,1580Zm-397.33-27.17c16.28,9,96.47,32.43,102.22,29.94l3.39-7.28c-7.28-5.81-14.46-11.18-21.24-17-16.35-14-10.31-12.82-29.7-9.55a29.82,29.82,0,0,1-3,.18Zm389.46,187.67c-59.15-4.86-117.39-.7-176.26-.71-.27,3.15-.51,5.92-.78,9.12,7.73,0,14.7.22,21.66,0,21.29-.79,42.57-2.47,63.85-2.49,28.64,0,57.28,1.07,85.92,1.9C1100.89,1748.49,1100.87,1745.15,1100.3,1740.53ZM840.53,1200.61c25.89,53.54,41.22,109,61.94,163.5l9.48-6.95c-25-54.3-44.57-109.45-65-166.26Zm-196.61,494c0,.82,0,1.63,0,2.45,91.73,4,183.45,5.07,275.34-1.64.41-6.41-3.37-6.06-7.16-5.75-11.92,1-23.83,2.39-35.77,2.8-31.32,1.06-62.64,2.25-94,2.33-43.37.12-86.74-.75-130.1-1.12A69.37,69.37,0,0,0,643.92,1694.6ZM1701.33,669.83c10.4-10.43,19-15.34,33.31-3.23-.64-8.54-1.24-16.59-1.84-24.64-4.77-2.23-7.66-.32-9.65,3.92s-4.76,6.87-9.92,7c-5,.09-10,1.09-15.15,1.71,2.62-10.5,12.2-6.91,19.59-8.54,1.66-3.91,3.33-7.84,5.37-12.62-2.45-.68-5.73-2.31-6.31-1.63-2.9,3.38-6.52,3-10.12,2.92-3.84,0-6,2-7.74,5.17-4.15,7.66-9.23,13.6-19.47,12.54-4.65-.48-6.23,3.39-3.46,7.4,2.41,3.48,5.36,6.58,8.29,10.13C1690.11,664,1695.9,667.12,1701.33,669.83ZM926.91,1730.68c0,1-.07,2-.11,3,19.23-.63,38.45-1.5,57.69-1.81s38.76,0,58.14-.14c19.15-.19,38.19,3.58,57.76,2.69a46.3,46.3,0,0,0-.05-5.11,14,14,0,0,0-1.06-2.87C1041.62,1723,984.25,1726.16,926.91,1730.68ZM1676.6,629.4c-6.7.23-12.43,2.05-15.74,9.29,5,14.95,11.6,30.59-1.57,46.14,5-.58,9.84-1.36,14.24-3.21,7.47-3.14,8-9,1.85-14.57-1-.88-2.37-1.42-3.1-2.45-2.71-3.81-5.35-7.63-3-12.78s6.21-6.6,11.41-5.58c6.71,1.33,10.74-1.86,13.26-7.74,2.71-6.33,6.84-10.94,15.82-10.57-5.49-1.22-9.34-2-13.14-2.94s-7.1-.8-9.5,3c-5.09,8.1-14.49,9.41-21.53,14.45-.5-.62-1-1.23-1.51-1.84Zm-578,1090.05c1.24-5.59-1.52-5.77-5-5.65-12,.42-24,.87-36,1-39.4.38-78.81.57-118.21,1-4.82,0-9.64.94-14.63,1.46.66,7.41,5.22,5.5,8.37,5.31,11.64-.71,23.24-2.35,34.88-2.54,29.71-.5,59.42-.42,89.13-.54C1070.78,1719.4,1084.41,1719.45,1098.59,1719.45ZM852.55,1141l78.33-69.27c-29.16,19.84-59.67,37.63-86.53,61.72C847.36,1136.22,849.75,1138.42,852.55,1141ZM611.63,1589c7.23,2.1,11.45,1.47,14.23-4.25,1.24-2.56,3.8-4.62,6.08-6.53,12.61-10.56,26.23-19.4,42.25-24,2.1-.61,4.13-1.45,7.68-2.7-7.71-4.68-14.15-7.29-21.51-3.54-6.53,3.31-12.85,7-19.34,10.43C628.07,1565.16,620.84,1577.16,611.63,1589Zm950.19-875.45h20.76c-1.29-2.74-2.12-4.53-3-6.3-5.09-10.53-3.87-17.73,4.46-26.13,7.1-7.17,7.1-7.17,1.93-17-4.08,7.2-9.33,13.75-11.56,21.19-2.16,7.24-1.22,15.4-1.64,23.16-5.5-11.92-5.65-24.79.52-35.16a95.16,95.16,0,0,0,10.23-24.62l9.15-3.68c-7.52-1.48-12.9-.29-15.27,8.1-1.53,5.43-5.67,10.54-9.76,14.69-3.54,3.59-4.75,6.35-3.13,11.29,3.51,10.73,4.35,21.51-2.66,31.53C1561.43,711.23,1561.82,712.48,1561.82,713.55ZM596.22,1589c6.87-10.5,13-19.9,19.85-30.32-7.63,0-13.92-.3-20.15.16a9.57,9.57,0,0,0-6.45,3.39c-5.39,7.84-10.27,16-16.25,25.53Zm341.1-90.06c-2.15-25.57-3.23-50.56-9.7-74.85-2-7.39-3.91-14.8-6-22.16-.89-3.12-2.84-4.29-6.61-1.82.93,3.68,1.75,7.52,2.86,11.27,4,13.42,7.74,26.81,8.18,41,.42,13.63,1.71,27.24,2.61,40.86C929.05,1499.45,929,1499.45,937.32,1498.93Zm-164.5,42.9c.28-.92.55-1.84.83-2.76-1.78-1.09-3.6-3.18-5.35-3.13-28.57.83-57.44-2.44-87.49,5,13.93,8.56,26.74,6.51,39.56,4.34,4.56-.78,9.12-1.91,13.72-2.14C747,1542.52,759.91,1542.25,772.82,1541.83Zm142.36,200H738.57c23.15,1.4,46.28,2.48,69.42,2.92,34,.63,68.08.8,102.12,1.19C912.85,1745.94,915.71,1746.28,915.18,1741.8Zm92.11-151.92c.34-8.36.86-15.94-2.68-23.14-5.41-11-10.7-13.38-22.09-9.64a53.83,53.83,0,0,0-5.18,2.3c6.76,8.87,13.95,17.1,19.62,26.26C999.72,1590.13,1002.38,1590.68,1007.29,1589.88Zm-97-50.49c1.25,1.52,1.55,2.27,2.06,2.45a22.93,22.93,0,0,0,3.86.86c11.46,1.84,22.94,3.57,34.39,5.54,3.9.67,8.54.86,11.39,3.11,8.48,6.72,16,1.75,23.9-.54-21.37-10.21-44-14.16-67.34-13.87C915.93,1537,913.34,1538.44,910.28,1539.39Zm-75.77,33.35V1549H793.17c8.14,6.83,14.92,11.65,20.62,17.53C819.68,1572.57,826.07,1574.83,834.51,1572.74Zm333.22,73.17c-15.76-2-30.46-4-45.75-2.2l-1.71,14.81h47.46Zm36.31-605c11.35.27,21.48,2.77,27-8.73,3.1-6.46,1.37-16.17-4.81-23.27A178,178,0,0,0,1204,1040.91Zm353.61-384.27c-10.13-.81-12.21,6.6-14.93,12.59-3.64,8-2.43,11.69,4.18,17.45,6.35,5.53,6.23,7.2-.83,11.35-1,.59-2,1.24-3.84,2.4l10,10.32c1.56-3.91,2.45-6.79,3.82-9.43,2.33-4.45,2.76-9,.55-13.42C1551.29,677.43,1553.63,667.33,1557.65,656.64Zm-81,159.76,2.09-1.74c-1.12-3.41-1.38-7.53-3.52-10.08a181,181,0,0,0-17.36-17.78c-4.79-4.34-10.88-3.46-13.43,2-6,12.81-5.23,25.94-.62,39a50.25,50.25,0,0,0-.14-9.81c-.31-4.29-1-8.61-.74-12.89.46-9.09,7.91-12.83,15.35-7.68,2.67,1.84,4.68,4.63,7,7Q1471,810.4,1476.67,816.4ZM1142.4,1373.49h-35.25v10.84h35.25Zm-236,164.59c-.16-.61-.33-1.21-.5-1.81a12.14,12.14,0,0,0-3.48-1c-19.62.11-39.25.27-58.86.61-1.06,0-2.09,1.71-3.2,2.68,1.09,1.06,1.53,1.87,2,1.87,18.94.37,37.89.78,56.83.81C901.55,1541.2,904,1539.17,906.37,1538.08ZM477.7,1675.14c-17.23-9.6-40.75-7-51.26,4.64q12.33-1.15,24.65-2.3C459.49,1676.72,467.9,1676,477.7,1675.14Zm441.08-302.9c-9.42.26-14.54,4.78-15,11.43-.41,6.16,3.64,9.61,9.31,7.25a27.51,27.51,0,0,0,9.57-6.72c1.71-1.88,3.15-6,2.2-7.8C923.63,1374,919.93,1373,918.78,1372.24ZM1691,673.16c-1.62,4.29-1.69,6.78,3,6.46,3.62-.24,7.21-1,10.83-1.29,10.44-1,20.88-1.86,33.11-2.94-2.29-2.28-3.19-3.69-4.48-4.35-1.88-1-4.27-1.06-6-2.17-9.22-5.73-13.09-5.11-19.55,4-2.49,3.53-5.33,4.72-9.33,3.18ZM1006.43,1003.3c5.62-9,11-17.52,16.55-26.38l-7-5c-6.62,9.6-12.94,18.74-19.57,28.34ZM1145,1634.73c-6.13-8.9-11.07-16.51-21.27-20.71-.72,7.68-1.28,13.76-1.93,20.71Zm-117.45,73.66c32.34,3.36,63.64,3.38,70.4.18-.55-.79-1-2.17-1.61-2.22C1074.08,1704.37,1051.93,1705.9,1027.52,1708.39Zm770.13-921.23c-8.34,6.33-9.63,11-7.72,24l11.25,12.41c.7-7,4.19-13.34-1.44-19.69-1.48-1.66-1.1-5.05-1.4-7.67C1798,793.33,1797.9,790.48,1797.65,787.16Zm-266-85.16c-2.37-3.6-4.64-6.4-6.19-9.56-3.46-7.09-3.31-7.14-11.75-6.43-2,.16-4,0-6,.2-7.25.63-8.43,2.06-9,10.89,2.26-.89,4.43-1.67,6.53-2.59,6.85-3,9.23-3.13,13.54,3C1522.23,702.22,1526.06,702.5,1531.66,702ZM1544,691.08c-11.21-7.11-9.81-17.33-5.74-28.15l-2.59-.46-11.86,17.27,11,16.6ZM834.87,1538.56c-1.08-1-2-2.52-2.86-2.53-17.09-.14-34.18-.1-51.27-.1l-.36,2.76c2.94.74,5.85,1.82,8.84,2.14C801.09,1542.1,830.07,1540.68,834.87,1538.56Zm162.78-524.44c-7.72.31-12.22,3.93-13.25,10.5a10.72,10.72,0,0,0,3.13,8.48c2.71,2.26,6.19.61,8.73-2.1C1001,1026,1001.09,1020.61,997.65,1014.12ZM1082.34,1677l-7.66,1c.48,7.38.92,14.16,1.4,21.45l11.41-.7C1085.78,1691.51,1084.22,1684.9,1082.34,1677Zm546.2-977.26,16.09-15.25c-3.87-2.6-7.17-7.75-13.34-4.1C1626.34,683.27,1625.5,689.28,1628.54,699.69Zm-610.52,890h20.25l-18.52-17.59C1019.07,1579.06,1018.56,1584.17,1018,1589.72Zm1424.84,192.16c-4.47-6.72-4.57-7.24-7.82-6.6-7.58,1.48-15.06,3.5-22.57,5.31.11.67.23,1.34.35,2C2422.72,1782.43,2432.66,1784.45,2442.86,1781.88ZM1512.21,698.4c-5.5,3.45-10.32,5.49-12.79,11.47l26-1.8C1518.86,708.75,1515.1,705.05,1512.21,698.4Zm289.55,64.79c-7.5,2.92-8.37,9.23-10.46,14l13.17.76C1803.61,773.23,1802.74,768.49,1801.76,763.19Zm-661.53,600.4c-9.56-5-18.73-3.78-27.78.77C1121.8,1367.34,1131.05,1363.73,1140.23,1363.59ZM1798,836.6c-10.54,6.66-5.76,15.73-5,24C1797,853.28,1797.91,845.37,1798,836.6ZM963.61,1773.69l20.12,1.42C977.46,1768.93,970.73,1769.38,963.61,1773.69Zm84.19-.73c-5.57-4.9-10.4-1.68-15.36,0Zm1570.44-38.22c3.62-2.72,3.62-2.72,4.05-7.87C2615.58,1727.73,2615.58,1727.73,2618.24,1734.74ZM858.34,1159.67l-3.74,13.9C859.88,1170.34,862.4,1166.42,858.34,1159.67Zm-198.94,425c-7.35-5.14-7.6-5-8.87,3.09Zm156.93-.09,10,2.45C824.23,1582.09,821.91,1578.19,816.33,1584.61ZM1077,1769.75v1h8.11c0-.34,0-.68,0-1ZM1540.23,705.41l-2.25,2.25c.71,2.55,1.67,4.84,6.86,4.62ZM831.69,1582.76c.76-.78,1.52-1.57,2.29-2.35.39-3.23-1.21-4.36-7.17-3ZM715.38,1742.32v.08h3.26v-.08ZM843.92,1549l-1.95-1.41c-.78,1.66-1.57,3.33-2.35,5l1,.54C841.73,1551.71,842.83,1550.34,843.92,1549Zm100,12-.71-1.64-5.14,2.06.68,1.68Z"/><path d="M2985.08,1861.74c-6.26,8.49-13.87,10.51-23,3.75-2.21,3.54-3.77,6.43-5.71,9-4.31,5.84-8.55,6.74-14.64,2.77-3.25-2.13-6-5-9.19-7.77,5.14-2.39,5.14-2.39,16.43,2.79a67.49,67.49,0,0,0,3.61-6.41c3.92-8.88,6.09-9.93,15.36-7.08,1.86.57,3.74,1.07,6,1.71l6.42-8.27,4.8,3.44Z"/><path d="M1935.31,757.36c-4.12-8.49-.85-14,3.71-19.13,7.11-8,14.77-15.5,21.45-23.82,12.26-15.28,21.76-32.11,24.06-52,2-17.18-2-23.36-18.21-30-15-6.12-30.9-8.32-46.93-9.27-11.33-.67-22.7-.56-34.05-.92-2.92-.1-5.83-.68-8.8-1-1.68-5.41.54-8.09,4.7-9.89,13.16-5.68,26.38-11.24,39.45-17.13s25.8-12.48,36.81-22c16-13.87,18.79-29.31,7-46.84-5-7.37-10.81-14.61-17.67-20.15-13.49-10.86-28-20.44-42-30.69-2.77-2-5.08-4.68-7.83-7.25,4.42-4.95,8.62-3.65,12.72-2.42,22.53,6.74,45.37,7.09,68.36,3.12a71,71,0,0,0,13.43-3.84c18.89-7.33,25.4-18,24.34-41-.62-13.62-6.09-25.94-13-37.51-5.68-9.44-11.72-18.66-17.5-28a64.89,64.89,0,0,1-5.76-10.52c-.7-1.81-.5-5,.69-6.25s4.43-1.62,6.26-1a34.17,34.17,0,0,1,8.48,5.1c13.67,10.14,26.9,20.92,41,30.37a117.46,117.46,0,0,0,26.9,13c14.79,5.09,24.3,1.72,32.3-11.89a152.82,152.82,0,0,0,14.25-31.85c4.95-15.89,9-32.18,9.22-49.05a8.86,8.86,0,0,1,.12-2c.76-3.06.22-7.73,4.82-7.25,1.92.19,4.16,3.8,5,6.29a62.68,62.68,0,0,1,2.61,12.73c2.53,19.48,11,36.19,23.27,51.25,12.45,15.23,28.7,18.47,47,15.06a23.26,23.26,0,0,0,9.78-4.69c7-5.62,14.24-11.2,20.25-17.82,12.1-13.34,23.46-27.35,35.1-41.11,2.12-2.5,3.83-6.12,7.95-4.22,3.85,1.77,4.84,5.5,4.12,9.34-.67,3.59-2.41,7-3,10.57-3.48,20.84-4.91,41.71-1.46,62.77,1.76,10.81,7.91,18,16.65,23.77,14,9.21,29.45,9.05,44.43,4.84,19.86-5.59,39.2-13,58.76-19.72,1.57-.54,3.08-1.52,4.67-1.65,3.21-.25,5.67,1.51,4.58,4.72a27.11,27.11,0,0,1-5.74,10c-7.45,7.65-15.59,14.63-23.14,22.18-11.94,11.95-20.46,26.25-28.06,41.23-12.24,24.12,5.39,47.65,27.29,51.81a156,156,0,0,0,23.84,2.45c19.67.64,39.35.82,59,1.17,3.07.05,6.94,0,7.11,3.68.11,2.29-2.16,5.87-4.3,6.87a256.47,256.47,0,0,1-25.05,10c-10.71,3.69-21.73,6.54-32.4,10.35-12.83,4.58-23.26,13-32.71,22.59-8.61,8.69-8,19.39-4.88,30,4,14,13.13,24.72,24.15,33.72,11.9,9.72,24.32,18.75,38.72,24.69,3.8,1.58,7.1,4.38,10.85,6.75-3.38,6.62-8.36,6.59-13.38,5.94-9.6-1.24-19.16-2.81-28.76-4.07-20.16-2.65-39.21,1.8-57.38,10.1-12.52,5.73-17.69,17.09-18.7,30-1.47,18.59,1.43,36.69,10.12,53.42,4.61,8.87,9.93,17.38,14.93,26.05a25.49,25.49,0,0,1,2.4,4.36c1.34,4-.73,7.06-4.77,6.25a23.17,23.17,0,0,1-9.66-4.46c-13.19-10.77-25.71-22.41-39.29-32.65-9.22-7-19.28-13.39-29.9-17.78-17.3-7.15-30.37-1.29-39.23,15.27-8.6,16.08-10.86,33.59-11,51.39-.12,13,1.1,26,1.24,39,0,4-1.51,8-2.69,13.69-5.49-5.22-8.87-9-11.29-14.3-9.17-20-18.64-39.91-28.62-59.54-4.69-9.23-11-17.47-20-23.32-6.3-4.1-12.49-5-19.91-2.59a68.49,68.49,0,0,0-26.11,16.19A186.75,186.75,0,0,0,2075.17,827c-3.64,6-7.57,11.82-11.69,17.48-2.43,3.35-4.65,7.53-10.45,6.72-3-5.37-2.07-10.84-.64-16.35,3.11-11.95,6.43-23.85,9.23-35.87,4.52-19.4,1.19-37.85-8-55.24-4.88-9.18-12.74-14.21-23.39-14.81-16.4-.92-31.86,3.18-46.91,8.9-12.78,4.86-25.22,10.59-37.84,15.87C1942.42,754.92,1939.28,755.91,1935.31,757.36Zm432.2-338.89c-9.33,2.55-19.18,5.57-29.2,7.88-18.39,4.23-36.59,4.33-53.39-5.69-11.56-6.9-20.65-16.29-22-30.47-1.17-12.25-1.5-24.6-1.68-36.91-.1-6.69.89-13.4,1.4-20.1l-2-1.23a91.24,91.24,0,0,1-6.09,7.68c-11,11.2-21.71,22.63-33.17,33.29-15.73,14.64-52,17.21-71.62-5.85-7.65-9-14.52-18.29-19.28-29.1-.83-1.88-2-3.6-3-5.47-1,.81-1.35,1-1.41,1.23-.36,1.61-.58,3.26-1,4.87-4.2,16.94-9.46,33.55-20.15,47.6-11.8,15.49-26.4,21.15-44.89,14.83-16-5.47-30.07-14.32-43.38-24.52-2.73-2.09-5.35-4.32-8-6.48,1,5.3,3.21,9.28,5.41,13.27,8.87,16.12,14.45,33.09,12.48,51.76-1.73,16.36-8.91,28.69-24.88,35.8-18.37,8.17-37.38,9.14-56.87,8.14-3.09-.16-6.19,0-11.39,0,6.11,4.64,10.58,7.93,15,11.35,13.28,10.41,25.15,22,31.72,38,4.65,11.31,5.85,22.86-.3,33.83a71.27,71.27,0,0,1-13.14,17.35c-13.16,12.17-29.11,19.93-45.74,26.34-3.09,1.2-6.88,1.58-9.67,6,3.57,0,5.84-.14,8.09,0,20.71,1.47,41.25,3.65,60,13.89,11.33,6.18,17.09,15.63,17.06,28.44a76.71,76.71,0,0,1-5.84,30.29c-6.19,14.54-14,28.07-24.79,39.74-1.81,2-3.27,4.21-4.89,6.33a23.53,23.53,0,0,0,9.43-2.18c16.85-6.55,33.92-12.16,52.22-12.94,20-.86,35.1,6.94,44.24,24.93a79.27,79.27,0,0,1,6.07,58.36c-1.26,4.71-2.43,9.44-4,15.58,10-11.58,18.79-22,27.84-32.2,10.09-11.35,22.86-18.16,37.58-21.62,7.64-1.8,14.49-.36,21,3.84,8.83,5.72,16.37,12.75,21.6,21.92,5.61,9.85,10.84,19.93,16.23,29.91l5.7,10.59c.9-10.21,1.29-18,2.33-25.76,2.34-17.4,6.87-34.06,17.91-48.26,10.39-13.36,26.51-18.45,42.89-14.23,15.38,4,27.63,13,39.54,22.86,4.48,3.7,8.92,7.47,13.37,11.2a5.34,5.34,0,0,0,.16-4.56,114.3,114.3,0,0,1-7.74-51c1.39-17.65,9.21-31.65,25.54-39a122.87,122.87,0,0,1,31.43-9.29c10.16-1.55,20.74-.33,31.13-.33a12.34,12.34,0,0,0-4.17-5.43c-6.76-5.94-14-11.43-20.12-18-12.07-13-20.87-27.75-20.92-46.33,0-10.51,3.08-19.77,11-26.9,13.78-12.35,28.42-23.24,46.9-27.82,3.83-1,8.26-1.44,12.2-5.6-4,0-6.62.12-9.26,0-12.63-.68-25.41-.44-37.86-2.34-26.89-4.1-45.67-26.88-43.16-52.66.78-7.95,4.31-16.25,8.6-23.12C2347.45,445.84,2357.76,432.33,2367.51,418.47Z"/><path d="M1249.64,635.57c-1.23,6.43-4.79,8.45-9.56,8.35-10.67-.21-21.52.43-32-1.3-49.44-8.18-95.31-26.18-136.7-54.29-20.09-13.64-39.69-28.61-57.06-45.51-24.15-23.48-45.33-49.63-60.66-80.3-18.27-36.53-30.62-74.74-35.38-115.14-3-25.22-1.45-50.64,3.55-75.69,7-35.29,19-68.81,37-100,20.45-35.56,48-64.48,81.58-88.2a686,686,0,0,1,86.37-52.34c21.4-10.84,43.71-19.91,65.65-29.68,5.88-2.62,8.76-1.74,11.91,3,2.59,3.92,1.8,8.89-2.54,12.26-5.27,4.09-10.86,7.75-16.31,11.62-23.47,16.7-46.18,34.43-62.72,58.38-27.13,39.3-48.25,81.24-56.8,129-8.93,49.86-7.94,99.58-1.24,149.43,4.5,33.5,11.61,66.42,23.68,98.08a327.1,327.1,0,0,0,63.24,103.58A256.84,256.84,0,0,0,1232,627.05C1237.92,629.88,1243.8,632.74,1249.64,635.57Zm-198-231.86,2.25-.52a51.47,51.47,0,0,0,0-7.35c-2.81-19.47-6.23-38.87-8.53-58.4a441.76,441.76,0,0,1,1.51-113.77,305.69,305.69,0,0,1,35.92-106.55c11.66-21,23.51-42,40.61-59.32,1-1.06,1.69-2.5,3.75-5.65-3.74,1.53-5.54,2.09-7.18,3a629.46,629.46,0,0,0-78.71,49.48c-30.33,22.4-54,50.63-72,83.51-14.86,27.09-24.76,56.1-31,86.36-7,34.12-7.38,68.4,0,102.39a329.7,329.7,0,0,0,35.3,93.34,236,236,0,0,0,24.54,35.27c14.84,17.66,32.16,32.89,49.78,47.84,39.38,33.43,83.49,57.39,133.83,69.57,8,2,16,4,24,6l.25-1-41-27.25,2,6.23-2,1.21c-1.79-2.41-5.22-4.95-5-7.19.56-6.84-3.71-10.55-7.73-14.33A295.59,295.59,0,0,1,1095.77,513c-11.44-20.77-21.54-42.18-28.35-65-3.9-13.06-7.66-26.16-11.44-39.07-9.3-2.65-10.93-5-10.09-14.41Z"/><path d="M1484.82,173c-17.14-8.64-27.35-22.19-29-40.63-1.08-12.11,1.6-23.94,10-33.74,17.13-20,49.35-23.54,68.71-7.47,6,4.94,11.8,10.24,14,17.86,2.06,7,4,14.21,4.17,21.37.18,7.72-3,15.09-7.94,21.22-4.49,5.62-9.51,10.81-15,16.93,12.62,1.14,24.41,2.31,36.21,3.21,4.16.31,5.39-2.35,4-5.88-4-10.44,1.41-19.47,4.28-28.79,1.14-3.7,5.07-4.16,8.54-3.15q11.05,3.24,22,6.93c3.78,1.29,6.5,3.91,5.72,8.27-1.86,10.42-3.77,20.9-13.94,28.2,1.84,1.24,3.23,2.69,4.9,3.24,28.86,9.4,51.18,27.77,71.23,50,23.44,26,38.48,56,45.79,89.93,10.41,48.29,4.87,94.37-21.78,136.8-29.56,47.05-70.3,79.83-124.21,95a151.53,151.53,0,0,1-66.45,3.52c-24.93-4.14-48.76-11.48-70.31-24.93a215.06,215.06,0,0,1-24.31-17.57,201.88,201.88,0,0,1-59.22-81.88c-5.36-13.64-11.07-27.37-14.22-41.59-2.55-11.54-2.49-23.93-1.89-35.86q3.13-62.29,42-111.49c18-22.78,41.4-38.46,66.65-51.62C1457.37,184.36,1470.69,179.28,1484.82,173Zm231.1,183.57c-1.28-19-4.44-43.17-14.7-66.29s-23.41-44.18-41.08-62.3c-21.49-22-46.65-37-77.37-43.13-19.4-3.89-38.68-7.59-58.43-7-11.93.34-24.39.65-35.59,4.2-22.59,7.16-43.89,17.84-64,30.43-13.91,8.69-26.58,19-36.9,32-19,23.88-32.49,50.43-38.83,80.41-5.6,26.5-7,53.07,1.6,79.15a292.35,292.35,0,0,0,15.46,36.85c11.66,23.88,26.7,45.32,46.91,63,13.49,11.8,28.75,20.53,44.72,28.27,51.68,25.05,102.84,24.31,153.65-2.76,23.69-12.63,42.9-30.15,59.88-50.79C1699.11,444.69,1715.2,406.55,1715.92,356.6ZM1524.84,136.35c4.8-15.71-.19-27-13.77-31.67-12.38-4.24-23.77-1-31.77,11.75-5.87,9.37-5.27,19.91,1.92,26.79-.29-3.14-.57-5.76-.77-8.38-.6-7.67,0-8.84,7.44-9.9,9.23-1.32,18.55-1.91,27.8-3.12,4.28-.57,6.28,1.51,7.25,5.08C1523.77,130,1524.22,133.19,1524.84,136.35ZM1573.5,162c8.51,2.12,15.76,6.51,24.85,5.47l6.55-20.79-25.7-7.34C1577.16,147.47,1575.48,154.15,1573.5,162Zm-84.12-14,27.86-3.32c-.83-5.87-1.48-10.38-2.3-16.19l-27.66,3.27C1488,137.22,1488.57,141.73,1489.38,148Zm24.83,5.46-15.13,2.61c.81,5.1,1.42,9,2.06,13h15C1515.49,163.94,1514.94,159.44,1514.21,153.46Zm77.43,21.67c-5.17-2.52-10-6.68-18.08-3.77C1580.16,175.37,1585.55,176.8,1591.64,175.13Z"/><path d="M2146.58,1195.22c-4-14.86,11.74-33.07,26.17-31,4.59.68,9,2.4,13.51,3.7,12.06,3.52,17.74,1.55,24.49-9a177.79,177.79,0,0,0,8.91-15.66c7.33-14.53,23.8-22.48,39.49-18,5.12,1.48,10.32,2.66,15.44,4.12,1.09.32,2,1.27,4.62,3-3.69,1.45-5.9,3-8.14,3.07a136.05,136.05,0,0,1-17.94-.69c-10.65-1.17-19.07,2-24.65,11.43-2,3.45-3.74,7.1-5.9,10.47-2.69,4.21-5.3,8.58-8.65,12.24-7.52,8.23-16.5,12.28-27.82,8-3.42-1.29-7.09-1.93-10.49-3.25-7.35-2.86-13-.82-17.51,5.37C2154.32,1184.31,2150.58,1189.61,2146.58,1195.22Z"/><path d="M1332.23,536.81c-8.76,3.93-13.7,10.4-22.54,9.9.57-2.14.48-4.46,1.6-5.52a206.87,206.87,0,0,1,15.83-13.76c3.63-2.8,8-3.41,12.21-.8,4.06,2.5,4.42,6.7,3.9,10.63s-2.1,7.68-3.35,11.47c-2.5,7.59-5.14,15.15-7.61,22.75-.38,1.17-.2,2.51-.34,4.84l28.51-18.73c5.41,6.3,6.1,9.7,1.25,13.12a288.55,288.55,0,0,1-30.57,18.9c-5.72,3-11.38-.77-10.7-7.27,1-9.5,3.52-18.88,5.82-28.21C1327.49,549.05,1329.64,544.19,1332.23,536.81Z"/><path d="M2159,1327.52c4.08-19.11,21.69-27.89,37.73-19.55,4.13,2.14,8.08,4.68,12.34,6.51,7.75,3.31,9.1,2.89,14.58-3.53,8.73-10.23,18.64-18.88,30.56-25.34a34.44,34.44,0,0,1,21.16-4.33c8.11,1,16,3.5,26.19,5.83-3,3-4.33,5.33-5.91,5.55-4.83.64-10,1.39-14.62.4-11.79-2.5-22.58-1.41-32,6.47a236.74,236.74,0,0,0-19.21,17.27c-8,8.38-13,10.11-23.95,5.77-4.29-1.7-8.28-4.24-12.28-6.62-9-5.35-16.73-4.32-24.12,3.36-2.51,2.62-5.07,5.21-7.69,7.73C2161.4,1327.41,2160.53,1327.28,2159,1327.52Z"/><path d="M2025.33,1147.65c-4-10.79-3.74-21.87,1.59-32.14,1.79-3.44,7.22-5.52,11.41-7,3.29-1.17,7.27-.28,10.91-.65,5.61-.59,11.39-.79,16.74-2.38,9.75-2.89,11.42-5.61,10.58-16-1.23-15.24,1.47-29.25,11.49-41.27,4.82-5.78,7.57-6.41,14.58-3.6-1.8,2.08-3.64,4-5.25,6.07-7.56,9.79-12.54,20.46-11.08,33.26,0,.33,0,.67,0,1,.57,20.56-7.79,29.65-28.51,30.83-4.33.24-8.69-.07-13,.11-10.08.43-12.88,3.08-13.82,13.18-.3,3.32.08,6.7-.28,10a88,88,0,0,1-1.89,9Z"/><path d="M2160.47,1460.29c5.11,3.53,8.69,5.8,12.06,8.35,10,7.59,12.88,7.4,20.52-2.07,6.58-8.14,13.91-15.14,23.64-19.6,6.33-2.9,12-3.17,18.06.35,4.89,2.86,10.07,5.24,14.86,8.27,4.57,2.89,9.13,3.37,14.29,2.11,8-2,16.13-3.4,24.85-2.54-.21,5-3.54,6.79-7,7.6a162.9,162.9,0,0,1-22.59,4.08c-3.7.33-7.85-1.1-11.38-2.69a80.84,80.84,0,0,1-14.73-8.39c-5.82-4.28-11.33-3.78-16.62.06a190.65,190.65,0,0,0-15.27,12.7,52.63,52.63,0,0,0-5.76,6.91c-4.61,5.9-10.2,8.15-17.6,5.52C2168.77,1477.74,2161.76,1470.48,2160.47,1460.29Z"/><path d="M1068.65,1249.27c9.9,1.52,19.29,3,28.7,4.39,6.58,1,13.22,1.48,19.75,2.64,7.27,1.29,11.88,5.63,13.17,13.14.57,3.27.88,6.67,2,9.73,3.2,8.45,9,14.07,17.88,12.8a35.36,35.36,0,0,1,6,0c15.64.49,22.42,10.57,17.19,28.7-2.12-5.19-4-8.74-5-12.5-1.63-5.71-5.19-8.23-10.95-8.12-3,0-6,.07-9-.1-12.45-.7-18.78-5.49-23-17.21a15.82,15.82,0,0,1-1-2.83c-2.07-14-1.61-14.09-20.11-16-8.92-.92-17.86-2-26.64-3.81C1070.34,1258.59,1069.07,1256.35,1068.65,1249.27Z"/><path d="M1401.41,587.65c-2.8,2.24-5.64,4.46-8.41,6.75-2.46,2-4.84,4.14-9.08,7.78.59-4.13.22-6.35,1.15-7.38a202.28,202.28,0,0,1,16.06-16.28c1.87-1.64,6.06-2.7,8-1.7,3.41,1.73,4.22,5.8,2.8,9.62-1.74,4.68-3.8,9.23-5.59,13.88-1.39,3.6-2.59,7.27-3.87,10.92l1.86,1.34c2.31-2,4.53-4.22,7-6.1,5.5-4.25,11-8.51,16.77-12.4,1.27-.86,4.86-.76,5.17-.09a10.44,10.44,0,0,1,.4,6.27c-.33,1.44-1.79,2.81-3.05,3.82-8.57,6.84-17.12,13.72-26,20.21-1.73,1.27-5.47,2-6.9,1-1.64-1.16-2.71-4.68-2.32-6.87,1.16-6.5,3.13-12.86,4.82-19.27.91-3.47,1.88-6.92,2.83-10.38Z"/><path d="M1082.86,1157.69c6.15,9.75,15.72,11,26,10.55,2.66-.12,5.33-.07,8,0q14.54.29,20.1,13.72a21.92,21.92,0,0,1,1.47,3.7c2.15,10.15,7.47,15.3,18.72,15.1,10.14-.19,14.2,5.86,15.54,19.44-4.32,1.8-6.27-1.25-7.29-4.29-2.29-6.84-6.46-8.89-13.67-8.4-10.39.7-15.2-3.22-18.78-12.92-.58-1.56-1-3.19-1.45-4.78-3.78-12.13-6.55-14.18-19.25-14.28-4,0-8,.09-12-.11-7.84-.39-13.86-4.1-18.46-10.4C1079.88,1162.47,1079.55,1160.3,1082.86,1157.69Z"/><path d="M52.55,1994.73c9.19,4,8.84,13.12,12.26,20.72,1.39.14,3.24-.16,4.47.56,2.33,1.38,5.33,3,6.2,5.16,1.22,3.13-3.73,8.14-7.89,8.86-3.53.61-5.48-1-6.68-4.38-2.66-7.5-5.67-14.87-9-23.4l-16.11,6.28c1.83,4.73,3.17,9.14,5.25,13.16,1,2,3.3,4.48,5.29,4.76,5.52.79,8.66,3.62,9.12,8.85.34,3.78-5.3,8.17-10.62,8.89a4.45,4.45,0,0,1-2.21-.21c-4.28-10.12-7.92-19.27-12-28.22-3.63-8-3.26-10,4.72-13.85C41.06,1999.21,47,1997,52.55,1994.73Z"/><path d="M359.07,2033.81l-12-6c-4.14,6.48-8.15,12.83-12.25,19.11a85.27,85.27,0,0,1-6.3,9c-2.12,2.49-5.55,3.74-7.84,1.13-1.59-1.81-2.44-5.68-1.61-7.86,1.08-2.85,3.9-6.61,6.43-7,6.58-1,8.35-5.92,10.92-10.45,2.28-4,4.48-8.08,7.32-13.2,6.1,3.09,12,5.81,17.66,9,5.37,3,6.32,6.1,3.87,11.46-1.1,2.39-2.87,4.46-4.31,6.69-3.59,5.56-7.31,11-10.67,16.71-2.37,4-5.08,7.29-10.15,6.17a6,6,0,0,1-3.87-3.76,9.2,9.2,0,0,1,5.68-10.62C351.49,2050.5,353.83,2041.64,359.07,2033.81Z"/><path d="M1989.8,1029.82c-4.6,7.71-3.47,14.51-.28,21.43,2.26,4.91,1.27,9.77-2.55,13.85-1.81,2-3.67,3.86-5.35,5.93-3.32,4.11-3.81,8.35-.25,12.67a28.58,28.58,0,0,1,2.18,3.34c5,8.24,4.8,10.52-2.15,17.11a14.57,14.57,0,0,1-3.21,1.81c9.58,14.57,9.7,17.73.81,23.6,0-7.23-.49-13.9-5.92-19.18-1.16-1.14-.23-5.14.65-7.47s2.93-4.36,4.91-7.15c-1.36-2.33-2.75-4.89-4.29-7.35-5.1-8.17-5-13.3.46-21.08a54,54,0,0,1,3.9-4.54c3.06-3.43,4.81-6.65,1.91-11.52-1.73-2.91-2.11-7-2-10.55C1978.88,1034.91,1981.91,1030.91,1989.8,1029.82Z"/><path d="M1400.85,519.24c6.37,6.68,7.07,13.72,3.61,21.52-1.87,4.2-3.44,8.53-6.06,15.08L1421,544.91c3.52,8.22,3.28,10-2.23,13.07a119,119,0,0,1-15.27,7.45c-9.26,3.55-14.61-.85-12.84-10.49.77-4.22,2.5-8.27,3.91-12.36,1.06-3.07,2.3-6.08,4.34-11.43L1382.65,536C1382.23,527.5,1384,525.86,1400.85,519.24Z"/><path d="M2884.32,1944.6c-4.11,0-7,.16-9.9,0-7.64-.49-10-3.94-7.45-11.23a56.93,56.93,0,0,1,4-8c.78-1.45,2.81-3.12,2.49-4.12-1.38-4.33.15-7,3.89-8.78s7.61-1.25,13,1.69c-.32,9.64-12.77,11.47-13.69,21.36a14.23,14.23,0,0,0,3.36.82c10.67.08,14.22,4.27,12.37,14.85-.63,3.6-1.67,7.13-2.13,10.75s-.44,7.27-.63,10.91c-6.5,1.68-9.61,0-9.71-6.06-.07-3.89,1.14-7.82,1.93-11.7C2882.44,1951.91,2883.3,1948.81,2884.32,1944.6Z"/><path d="M2939,1916.75c-4,2-6.29,3.26-8.72,4.19-6.59,2.52-10.5-.64-9.38-7.67.36-2.24,1.52-4.36,2.36-6.51,1-2.67,2.15-5.32,3.7-9.15l-13.69,1.76c2.78-6,10.75-10.86,15.69-9.75,4.19,1,5.85,4.28,5.75,8.22-.08,2.94-1,5.85-1.5,8.8.47.39.93,1.11,1.42,1.14,11.32.5,13.7,2.74,14.49,14.08.25,3.64.07,7.31.29,11,.19,3.27.64,6.53,1,10.21-4.31,2.25-7.25.65-8.55-3.32-1.21-3.71-1.55-7.72-2.05-11.62C2939.42,1924.89,2939.34,1921.66,2939,1916.75Z"/><path d="M1664.65,207.22c26.46,5.25,71.86,81.34,68,112.1-4-1.38-3.78-5.11-4.78-7.95-4.62-13.16-8.53-26.61-13.86-39.48-7.75-18.68-20.15-34.38-34.11-48.87C1675.15,218.07,1670.37,213.14,1664.65,207.22Z"/><path d="M51,2050.68c1.57,2.44,3.72,4.67,4.58,7.33,2,6,3.3,12.19,4.78,18.33a7.74,7.74,0,0,1,.07,3.91c-1,3.18-1.91,7-6.46,6-4-.88-5.53-4.19-4-7.72,2.48-5.83,1.45-11-1.86-16.85L34,2069.2c1.39,5.79,2.38,11,3.92,16.06,1.38,4.51-.68,7.44-4.25,8.81-2,.78-5.37.08-7.16-1.25-1.07-.8-1.23-5.17-.19-6.08,4.8-4.19,2.75-8.13.75-12.53-3.39-7.5-2.78-9.49,4.54-13.61C37.65,2057.16,44,2054.22,51,2050.68Z"/><path d="M1751.69,333.46c-4.93-3.6-4.41-7.45-4.93-10.84-3-19.5-7.49-38.6-15.45-56.74a181.32,181.32,0,0,0-42.27-60.1c-1.21-1.13-2.36-2.34-3.5-3.55-.2-.22-.19-.62-.49-1.67,4.58-.62,7.57,2.22,9.83,4.88,8.62,10.11,17.58,20.06,25,31,17.79,26,28.76,54.78,31.72,86.35C1751.94,325.84,1751.69,328.94,1751.69,333.46Z"/><path d="M2149.39,1264.89c.81-1.78,1.33-3.78,2.48-5.3,10.15-13.5,33.47-20.44,49.3-14.36,5.68,2.18,10.42,1.24,15-2.11,3.47-2.57,6.58-5.65,10.11-8.12a30.27,30.27,0,0,1,9.58-4.35A59.85,59.85,0,0,1,2217,1252c-5.56,4-12.18,3.84-18,.43-8.8-5.15-17.38-3.82-25.69.31-5.91,2.94-11.25,7-16.87,10.56-1.8,1.13-3.7,2.1-5.56,3.14Z"/><path d="M1491.78,651.24h-10.49c2.61-8.74,8.2-13.32,15.06-17,10,4.35,6.28,12.55,5.27,21.09l16.33-9.25c4.64,5.13,4.44,9.72.34,13a59.08,59.08,0,0,1-15.3,9c-6.93,2.68-10.7-.36-11.18-7.86C1491.62,657.23,1491.78,654.27,1491.78,651.24Z"/><path d="M2180.74,1097.6c-6.5,9.59-12.7,19.41-19.68,28.64-1.95,2.57-6.06,3.84-9.43,4.91s-7.21,1.31-10.85,1.68c-11.7,1.17-20.44,5.91-22.62,19.51-4.62-4.12-4.53-8.44-2-12a41,41,0,0,1,10.41-10.4,24.31,24.31,0,0,1,12.11-4.21c13-.33,20.57-7.34,26.39-18,2.92-5.38,6.53-10.91,13.54-11.81Z"/><path d="M2913.17,1851.3c-.65-8.06,2.48-12.53,8.63-16.47l11.16,9.23c7.24-10.85,11.16-25.1,26.33-28.7,3.77,5.31,1.9,9-2.09,11.6-6.74,4.43-10.47,11-14.06,17.86-6,11.42-10.26,12-19.42,2.88-.69-.69-1.41-1.35-2.61-2.5Z"/><path d="M1345.1,218.72c-9,16.45-19.13,32.39-26.69,49.47s-12.62,35.37-18.6,52.63c-2-4.85-2.51-9.28-.64-15.9,8.13-28.67,19.7-55.78,37.34-80,2-2.74,4.72-4.95,7.11-7.41C1344.11,217.91,1344.6,218.32,1345.1,218.72Z"/><path d="M1630.87,563.49c-2.49-5.13-2-9.36,1.3-11.93a40.66,40.66,0,0,1,13.62-7.36c4.65-1.3,7.27,3.12,8.25,7,.86,3.37.47,7.17.1,10.72-.69,6.59-1.6,13.18-2.81,19.7-.29,1.54-2,3.74-3.33,3.92-1.48.21-4.35-1.22-4.66-2.44a28.5,28.5,0,0,1-.83-10.51c.75-5.75,2.3-11.39,3.52-17.08l-2.11-1.23Z"/><path d="M2146.45,1414.42c.78-2.59,1-5.24,2.28-7.22,7.59-11.85,20.74-17.3,34.66-14.26a50.84,50.84,0,0,1,13.19,4.53c6.79,3.65,13.29,3.68,20.1.55a49,49,0,0,1,5.24-1.69c-7.43,11.78-14.38,14.17-25.19,9.32-2.13-1-4.15-2.14-6.28-3.1-15.2-6.86-24-5.18-36,6.73-1.86,1.84-3.88,3.52-5.86,5.23C2148.38,1414.66,2147.94,1414.5,2146.45,1414.42Z"/><path d="M1450.19,651l-7-.58c.37-8.52,3.87-14,11.93-16.66,6.2,3.86,6.46,9.64,5.44,15.53l11.8,3.52c-3.76,4.31-6.41,7.6-9.34,10.63-2.67,2.77-5.9,4.59-9.84,2.6-3.5-1.78-4-5.09-3.65-8.59C1449.66,655.49,1449.92,653.51,1450.19,651Z"/><path d="M1449.65,594.4c1.88-6.9,6.85-9,11.67-10.72,3.87-1.39,7.07,2.59,6.29,7.54a28.6,28.6,0,0,1-1.95,5.62c-.57,1.46-1.27,2.87-2.15,4.86,8.14-.06,12.11-10.44,21.62-6.88-1.45,2.34-2.2,4.71-3.81,5.92a212.3,212.3,0,0,1-18.07,12.32,6.8,6.8,0,0,1-6.29-.51c-1.33-1.13-2-4.25-1.46-6.13,1.23-4.69,3.26-9.17,5.53-15.21Z"/><path d="M2423.94,1655.91c.5-2.69.17-5.6,1.47-7.1,6.14-7.1,12.78-13.56,23.48-12.41,2.86.31,5.84-.47,8.75-.74,5,8.41,2,16.15-7.78,18.52-4.11,1-8.55.7-12.84,1C2433.43,1655.37,2429.85,1655.57,2423.94,1655.91Zm15.21-11.72c.07.87.13,1.74.2,2.6,4.26.17,9.07,4.52,13.7-3.42Z"/><path d="M1685.84,575.54c-7.09-5.14-7.49-6.09-4-11.25,1.84-2.75,4.47-5,6.34-7.69,2.73-4,6.37-7.87,3.59-14.22l-9.65,2.34c-2.88-4.6.42-6.58,3.79-8.21,6.22-3,10.41-2.46,13.53,1.63s3,8.56,1.33,13.26A72.29,72.29,0,0,1,1685.84,575.54Z"/><path d="M1119.08,1220.83c3.58,7.61,8.56,9.39,14.6,9,1-.06,2,0,3,0,17.39.12,17.47.08,23.64,16.32,1.66,4.35,3.53,7.61,8.92,7.86,1.92.09,3.76,2.15,6,3.52-11.09,5.86-18.17,3.12-21.7-7.72-4.36-13.4-4.37-13.32-18.84-13.8a36.37,36.37,0,0,1-9.74-1.56C1119.47,1232.72,1116.8,1229,1119.08,1220.83Z"/><path d="M1366.68,232.9l-37.8,70.69c-.27-1.12-1.2-2.67-.88-3.9C1334.81,273.79,1347.33,251.12,1366.68,232.9Z"/><path d="M1775,645.38c3.44-11.57,12.54-17.7,19.85-24.78,8.28-8,16.14-17,26.5-22.53l2.06,1.62c-1.85,3.15-3.1,6.94-5.66,9.33-12.86,12-26,23.63-39.18,35.33C1778,644.88,1776.87,644.86,1775,645.38Z"/><path d="M1266.77,1046.84c13-3.46,52.44,11.58,62,23.36C1306.25,1065,1286.29,1056.56,1266.77,1046.84Z"/><path d="M1262.53,1056.54c15-.69,52.17,18.9,61.71,32A439.37,439.37,0,0,1,1262.53,1056.54Z"/><path d="M11.1,2044.22c-6.49,11.29-.49,21.22,2.36,31.41.36,1.27,1.2,2.44,1.4,3.72A8.92,8.92,0,0,1,9,2088.79c-4.75,1.6-8.9-1.43-8.65-6.41.07-1.32.09-3,.87-3.85,6.1-6.6,2.74-13.65,1.17-20.59C.57,2049.8,1.76,2047.53,11.1,2044.22Z"/><path d="M357.47,2123.8c-11.24,3.8-9.67,12.92-11.24,20.42-.67,3.21-.05,6.66-.44,10a19.24,19.24,0,0,1-2,7.45,6.29,6.29,0,0,1-9.5,1.55c-3-2.64-3.58-6.74-.65-8.76,6.85-4.74,6.49-11.7,7.4-18.47a39.11,39.11,0,0,1,1.79-8.78C345,2121.5,350.45,2119.86,357.47,2123.8Z"/><path d="M1479,918.24c5.58-.15,8.94,1.56,11.33,4.87,3.5,4.82,7.4,9.55,9.84,14.91,4,8.73,7,17.89,10.23,27,.82,2.37.63,5.09-.54,8.33-1.26-1.62-2.91-3.07-3.7-4.89-2.51-5.78-4.84-11.66-7-17.59-3.65-10.13-8.66-19.38-16.28-27.12C1481.65,922.43,1480.78,920.76,1479,918.24Z"/><path d="M2406.29,1630c-5.8-8.09.19-13.88,3.12-19.64s5-13.45,15.42-13.35c-2.47,3.53-4.55,6.16-6.24,9-1.81,3-3.24,6.31-4.83,9.48l1.58,1.17,9.23-10.36C2428.23,1612.94,2426.07,1615.87,2406.29,1630Z"/><path d="M1798,576.13l-33.75,42.45-2-.74c.15-2-.35-4.35.56-5.86,8.16-13.38,17.38-26,29.06-36.56,1-.93,2.8-1,4.23-1.52Z"/><path d="M1571.32,571.42c5.08,12.84,4.32,26.62,7.29,39.7.37,1.61-.91,3.61-1.47,5.59C1568,610.74,1564.84,589,1571.32,571.42Z"/><path d="M1270.93,1036.26c9.73-3.93,38.19,2.42,48.34,10.67C1300.89,1048.57,1286,1042.05,1270.93,1036.26Z"/><path d="M322.21,2085.36l10.43-3.46,1.42,1.39c-10.16,7.55-4.76,17-3.54,25.54.61,4.28.15,7-2.94,9.51-2.86,2.29-6.21,1.67-8-.77-1.2-1.62-1.36-6.23-.29-6.94,8.31-5.52,5.42-12.41,3.24-19.44C322.06,2089.68,322.32,2088,322.21,2085.36Z"/><path d="M1485.44,691.34c-6,8.86-31.41,25.09-49.27,32C1450.34,710.49,1465,698.41,1485.44,691.34Z"/><path d="M1237.71,1089.1a105.26,105.26,0,0,1,26.19,45.13A146.18,146.18,0,0,1,1237.71,1089.1Z"/><path d="M1556,623.52c-10.17-11.14-10.2-25.3-14.84-39.72,9.07,3.63,9.92,10.57,11.77,16.41C1558.82,619,1558.66,619.06,1556,623.52Z"/><path d="M1731.5,578.52c-4.45,13.38-12.18,22.62-20.48,31.59-3.78-2.35-2.58-5.29-1.6-8C1712.16,594.44,1723.37,582.05,1731.5,578.52Z"/><path d="M1250.24,1145.74c-11.68-16.35-20.13-33.44-21.59-43.11C1236.43,1106.06,1248.46,1129.45,1250.24,1145.74Z"/><path d="M1217.08,1112.34c10.05,11.91,15.51,24.82,18.45,40.1C1228.14,1147.71,1217.82,1124.79,1217.08,1112.34Z"/><path d="M1442.54,685.2l43.43-6.75C1479.53,686.7,1455.15,690.57,1442.54,685.2Z"/><path d="M1766.38,669.21c13.12-6.36,25.84-13.68,40.5-16.21C1794.44,661,1781.77,668.48,1766.38,669.21Z"/><path d="M1723.11,612.25c5.5-12.67,15.81-19.78,26.61-19.55-1.77,1.59-2.81,2.72-4,3.59Q1734.43,604.32,1723.11,612.25Z"/><path d="M1814,741.8c12.54,1.41,18.14,15.71,14.93,38.3C1826.48,765.18,1826.19,751.2,1814,741.8Z"/><path d="M1650.81,593c2.73,4,5.27,6.21,5.76,8.82.59,3.12-4.09,6.62-7.35,6.43s-6.18-3.51-5-6.93C1645.12,598.71,1647.74,596.73,1650.81,593Z"/><path d="M2468.33,1600.89c-.92,11.69-8.7,13.45-18.2,14.47C2454.2,1607.77,2458.67,1602,2468.33,1600.89Z"/><path d="M1521.72,610.78c10.77.64,16.94,7.07,20.23,19.37C1534.16,624.81,1529.32,618.08,1521.72,610.78Z"/><path d="M368.2,2170.35l-22.49,15.07A22.06,22.06,0,0,1,368.2,2170.35Z"/><path d="M1683,588.46c.29,5.36,1.69,9.73-3.27,11.55-1.31.48-4.51-.72-4.9-1.83-.89-2.53-1.75-6.62-.44-8C1676,588.52,1679.86,589,1683,588.46Z"/><path d="M1756.91,632l-6.76,6.29c-1.21-2.06-3.18-4-3.45-6.22-.33-2.77,1.4-5.55,4.74-4.82C1753.17,627.58,1754.51,629.77,1756.91,632Z"/><path d="M1760.37,661.77c-2.13-4.4-3.82-6.43-4-8.56-.27-3.58,2.31-5.79,5.68-5.1,1.59.33,4,3.33,3.72,4.72C1765.35,655.27,1763.18,657.39,1760.37,661.77Z"/><path d="M29.59,2114.11l-16.53-4.64C20.86,2105,25.71,2106.18,29.59,2114.11Z"/><path d="M69.9,2075.6c-4-7.13-1.18-12.31,2.74-17.18l2.2.63Q72.36,2067.33,69.9,2075.6Z"/><path d="M23,2130.81c-9.66,3.68-9.66,3.68-17.75-1.29C11.34,2127,16.26,2127.69,23,2130.81Z"/><path d="M348.17,2087.86c.65-8.32,5.19-12,12.68-16.21C358,2079.39,354.43,2083.89,348.17,2087.86Z"/><path d="M303.67,2085.13V2094l-1.69,0v-9Z"/><path d="M1675.26,1505.43c-16.72-.13-32.18-4-45.79-14.4-20.13-15.32-29.73-43.59-22.85-68,6.34-22.42,18.77-40.43,38.74-52.65a72.63,72.63,0,0,1,19.16-8.13c11-2.88,19.32,3.75,26.67,10.48a69.44,69.44,0,0,1,13.71,17.11c8.22,14.84,15.87,30,23,45.43,4.69,10,6.09,20.9,6.67,32.08.72,14.19-6.59,22.72-17.83,28.61A84.68,84.68,0,0,1,1675.26,1505.43ZM1659.36,1368l-1.7-.88c-1.28,1.7-3.3,3.23-3.71,5.12-1.21,5.48-2.68,11.14-2.45,16.66,1.36,32.94,15.66,60.23,38.34,83.32,7.27,7.4,16.34,12.66,27.26,13.37,6.78.44,8.14-.41,11.06-7.56-14.93,4.75-25.66-2.87-34.86-12.13a123.75,123.75,0,0,1-18.55-24.61c-11.78-20.1-20.43-41.22-15.46-65.45C1659.8,1373.29,1659.36,1370.58,1659.36,1368Zm44.67,58-18.32,22.12,16.33,19.46,2-1Zm9.63,49.93c6.52.94,9.38-1.5,9.84-6.1,1.14-11.52-2.29-22-8.74-33.83,0,8.43.14,14.6,0,20.76S1714,1469.19,1713.66,1475.9Zm-47-67.57h24.6l.57-1.47-26.92-16.74-1.91,1.42C1664.2,1396.88,1665.36,1402.22,1666.69,1408.33Zm13.52,29.8,17.65-18.56c-.27-.61-.54-1.22-.8-1.83l-26,1.52Zm-15-58.59,29.09,17.44c-3.59-9-8.81-16.35-16.87-21.18C1671.83,1372.43,1669.46,1373.25,1665.26,1379.54Z"/><path d="M1631.54,1498.09c-11.72-.19-23.46-9-29.85-21.5-9.29-18.19-12-38.71-5-48.8a130.28,130.28,0,0,0,7.64,41C1609.15,1482.42,1620.59,1489.34,1631.54,1498.09Z"/><path d="M1702.91,1374.85c-7.81-5.32-15-12.47-23.6-15.46-8.29-2.88-18.07-1.46-26.72-1.91,3.82-4.87,10.26-6.75,21.23-4.69C1687,1355.25,1697.59,1361.6,1702.91,1374.85Z"/><path d="M1732.37,1493.38c7-10.54,6.78-22.55,7.18-35C1748,1468.86,1744.76,1485.22,1732.37,1493.38Z"/><path d="M1524.54,775c-3.78-6-1.4-9.8,3.3-12,9-4.25,18.11-8.33,27.46-11.69,8.87-3.19,17.09-.44,24.12,5.43a82.68,82.68,0,0,1,9.74,10,4.84,4.84,0,0,1,.6,4.41c-.61,1.09-3,2.21-4,1.85-3.39-1.14-7.16-2.32-9.7-4.66-7.55-6.95-15.28-6.57-23.85-2.39a178.53,178.53,0,0,1-18.3,7.66C1530.85,774.64,1527.46,774.59,1524.54,775Z"/><path d="M1681,768c8.4-16.94,21-26.61,40.45-25.8,3.62.15,7.3-.87,10.93-.71,2,.09,3.88,1.52,5.81,2.34-1,1.93-1.47,4.68-3,5.62a26.65,26.65,0,0,1-9.27,3c-2.92.48-6,.07-9,0-7.39,0-13.67,2.29-18.67,8a76.43,76.43,0,0,1-8.69,8.28C1687.12,770.83,1684.31,772,1681,768Z"/><path d="M1654.17,852.42c9.67,6.09,11.68,13,7,19.6-4,5.59-8.46,5.88-14.84.92,3.14-2.54,7.63-4.5,9-7.77S1654.76,857.45,1654.17,852.42Z"/><path d="M1640.05,876.72c-1.62,4.66-5.42,5.55-10,3.88-5-1.81-6.83-7.08-5.48-15.33Z"/><path d="M222,2048.32c-1.24-5.36-2.43-10.47-3.83-16.5l-19.73,1.46c.9,10.42,1.87,20,2.48,29.6.18,2.86.39,6.77-1.22,8.43-1.93,2-5.84,2.87-8.83,2.76-4-.14-5.61-3.66-5.07-7.27.48-3.15,1.16-7.39,3.33-9,5.14-3.68,4.9-8.16,4.18-13.23-2.39-17-2.38-17,14.26-19.17,16.23-2.13,17.06-1.56,20.62,14.56,1.23,5.53,2.65,11,3.37,16.66.52,4.07-.38,8-5,9.85-3.91,1.54-10.06.19-12-2.64s-.85-8.4,2.56-11.77A53.86,53.86,0,0,1,222,2048.32Z"/><path d="M260.72,2052.67c.76,5.72,1.83,11.89,2.32,18.1.24,3.11.13,6.67-1.22,9.31-.81,1.57-4.74,2.87-6.52,2.23s-4-4.95-3.43-5.85c5.95-8.81,2.92-18.74,4.31-28.06a8.17,8.17,0,0,1,4.15-5.21c3.66-1.72,7.41-4.85,13.35-1.17Z"/><path d="M172.64,2124.66c15,9.09,31,16.45,45.06,28.85C205.4,2154.05,180.51,2138.09,172.64,2124.66Z"/><path d="M171.67,2153.86c16.93,5.41,31.52,14.78,45.11,25.89C199,2176,184.62,2166.16,171.67,2153.86Z"/><path d="M146.59,2234.62c-12.17-9.26-21.43-21.13-29.38-34.3,8.78,1.08,12.79,8.14,17.58,13.92,4.94,6,9.23,12.51,13.8,18.8Z"/><path d="M102.84,2222.59c11.19,7.49,16.72,18.85,22.35,32.47C114.57,2249.46,107.43,2239.12,102.84,2222.59Z"/><path d="M198,2091.67c9.14,3.55,15.51,6.73,17.78,16.63C208.31,2104.22,201.73,2101.46,198,2091.67Z"/><path d="M214,2082l10.94,13.35C215.4,2093.93,213.42,2091.76,214,2082Z"/><path d="M234.78,2088.19c-5.81-5.92-5.88-5.92-3.31-13.47C232.43,2078.63,233.39,2082.55,234.78,2088.19Z"/><path d="M1189.84,916.9c18.86,4.45,36,12.91,52.74,22.12l-.78,1.82c-8.55-4-17.06-8.16-25.65-12.12S1198.62,920.84,1189.84,916.9Z"/><path d="M2162.23,1716.77c.6-8.85-2.09-18.25,4.69-26.68C2170,1697.61,2168.68,1705.2,2162.23,1716.77Z"/><path d="M2157.59,1693.54q-1.74,3.92-3.49,7.83l-1.48-.54,2.86-8.29Z"/><path d="M2463.18,1754.7c4,1.45,8.08,2.79,12.06,4.36,7.5,3,14.88,4.53,23.19,2.72,10.56-2.29,21.14-1.67,30.53,4.93a63.34,63.34,0,0,0,5.93,3.31l-1.82,2.38c-1.16,0-2.44.32-3.47-.06-10.67-4-21.37-6.24-33-4.51C2483.45,1769.77,2471.81,1765.67,2463.18,1754.7Z"/><path d="M2506.54,1743.26c-1.45-.53-3.1-.77-4.3-1.64-6.85-4.92-13.94-7.07-22.57-4.8-6.6,1.73-12-2.1-17.18-6.58,10.39.36,20.14.52,29.86,1.11C2499.31,1731.77,2503.4,1736.73,2506.54,1743.26Z"/><path d="M2506.49,1725.57c7.11-3.07,12.64-3.92,17.79.37a65.68,65.68,0,0,0,29.8,14.5c-2.61,1.36-3.85,2.53-4.53,2.27-6.77-2.6-14.19-4.4-19.94-8.51-6-4.26-11.47-7.68-19-7C2509.87,1727.28,2509,1726.6,2506.49,1725.57Z"/><path d="M2408,1715.24c13.44,4,13.44,4,21.54,13.59A57.81,57.81,0,0,1,2408,1715.24Z"/><path d="M1036.5,940c-2.4,4.63-4.88,5-7.46,3.35-12.67-7.84-26.45-14.11-36.85-25.24-.6-.64-.67-1.76-1.13-3a7.31,7.31,0,0,1,9.2-.19C1012.31,923.1,1024.22,931.49,1036.5,940Z"/><path d="M1007.67,886.06c18.34,2.42,30,16.07,45.11,24.46-2.58,4.44-5.38,6.16-8.81,4.18A164.49,164.49,0,0,1,1007.67,886.06Z"/><path d="M996.36,898.68c4.77.82,8.07.45,10,1.89,11.41,8.33,22.5,17.08,34.31,26.16-4.8,4.06-8.36,2.75-11.6.32q-14.28-10.74-28.32-21.8C999.41,904.16,998.7,902.22,996.36,898.68Z"/><path d="M629.38,1705.75c-4.87,7.47-9.8,9.93-16.66,6.5-7.86-3.93-14.67-2.31-22,.26a64.89,64.89,0,0,1-10.63,2.68c-8.08,1.35-16.11,2-21.87-5.88-7.23,2.55-13.71,6-21.48,3.51-2.54-.8-6.08,2.16-9.28,2.61-1.52.22-3.31-1.41-5-2.2.91-1.5,1.49-3.78,2.81-4.36,5.86-2.58,11.41-7.48,18.59-3.65a2.61,2.61,0,0,0,2,.11c9.43-3.88,18.27-1.68,27.55,1.4,6.64,2.19,13.78.21,20.43-2.6C605.57,1699.17,617,1701.85,629.38,1705.75Z"/><path d="M447.21,1702.76c5.06,8.48,11.38,9.46,18.78,6.73.31-.11.71,0,1-.21,11.94-7.61,22.6-3.13,33.09,3.42-5.58,4.64-8.69,5.59-14.46,1.27-5-3.77-9.13-3-13.79-.63-5.44,2.71-11,4.79-17.22,3.76C447.47,1715.93,445.35,1712.4,447.21,1702.76Z"/><path d="M1156.79,1512.14c6.55,9.84,9.65,20.56,6.71,34.89-3.82-12.55-7.06-23.19-10.29-33.82Z"/><path d="M698.63,1562c-3.28,2.22-8.85,1.62-9.41,8.79l9.7,1c-3.33,4.54-7,5.64-11.22,2.87a7.22,7.22,0,0,1-1.83-9.74A9.13,9.13,0,0,1,698.63,1562Z"/><path d="M737,1575.56c-6.32-1.13-10,1.47-11,7.83-4.09-4.74-3.94-7.29.06-10.48C730.3,1569.5,733.44,1570.1,737,1575.56Z"/><path d="M1135.59,1681.4c-5.62,7.65-11.63,8.54-18.07,7.81-4.65-.52-5.56-1.84-8.14-10.13C1117.44,1687.75,1125.64,1680.58,1135.59,1681.4Z"/><path d="M1151.38,1698.14c4.27-8.49,8.34-16.56,12.6-25,.56.8,2.22,2.11,2,3.06C1164.21,1685.51,1159.92,1693.31,1151.38,1698.14Z"/><path d="M1118.2,1710.87c4.53.05,9.68-4.89,13.47,1.09C1127.19,1711.5,1122.32,1714.24,1118.2,1710.87Z"/><path d="M1141.32,1702.59c-4,3.27-8.41,4-13.7.55l13.27-3.1C1141,1700.89,1141.18,1701.74,1141.32,1702.59Z"/><path d="M1104.69,1686c.68,1,1.82,1.87,1.93,2.89s-.66,2.42-1.65,5.52c-1.25-3.55-2-5.55-2.65-7.55Z"/><path d="M1620.43,639.87c4.37,6,3.72,8.14-5.54,15.44,1.35-3.72,2.15-5.95,2.95-8.18S1619.53,642.41,1620.43,639.87Z"/><path d="M974.2,1571.57c-3.5,2.74-5.15,4.84-7.25,5.49-3.58,1.1-7.48-1.56-7.42-4.6.07-3.61,2.52-5.79,5.75-5.44C967.74,1567.28,970,1569.34,974.2,1571.57Z"/><path d="M1154.7,1621.11c-.93-1.68-1.92-3.33-2.78-5-.52-1-.86-2.17-1.46-3.73,6.66.42,7,3.9,6.56,7.86Z"/><path d="M757.43,1566.53c-3.87.15-8-2.84-8.08-5.87s5-7.9,8.83-8.24c3.57-.32,6.31,2.26,6.38,6A7.78,7.78,0,0,1,757.43,1566.53Zm3.63-7c-1.61-1-2.92-2.27-3.58-2-1.23.5-2.09,1.92-3.11,3,1.27.71,2.5,1.82,3.83,2C758.91,1562.55,759.79,1560.92,761.06,1559.56Z"/><path d="M794.18,1567c-3.1.57-4.67-6.11-8-2-.83,1,.94,4.15,1.68,6.89-4.16,1.05-7.35,0-8.17-4.87-.56-3.29,3.34-7,7.58-7.88S792.52,1559.37,794.18,1567Z"/><path d="M895.46,1564.92c.08,6.18-3.85,6.5-6.78,7.27s-6-.27-6.88-3.8c-.75-3.07,2.78-6.5,7.18-6.28C891.38,1562.22,893.69,1564.1,895.46,1564.92Z"/><path d="M901.22,1563.31c-2-3.23-3.76-4.85-4-6.64-.39-3.37,3.18-6.88,6.18-6,1.73.5,4.42,3.49,4.1,4.24C906.37,1557.52,904.1,1559.66,901.22,1563.31Z"/><path d="M856.54,1573.57c-.73-1.4-1.47-2.8-2.71-5.15l-5.57,6.55c-4.37-3.18-1.88-6.06.64-7.91,1.79-1.32,5.25-2.34,6.91-1.48,3.53,1.84,3.5,5.15.53,8.1Z"/><path d="M828.41,1558.32c-3.18,1.57-5,3.22-6.63,3.1a18.72,18.72,0,0,1-7.66-2.69c-.44-.25.18-3.78,1.24-4.93,2.31-2.51,5.51-4,8.69-1.52C825.66,1553.52,826.56,1555.69,828.41,1558.32Z"/><path d="M1123.42,1654.53c2.68-4.47,4.7-6.62,10.39-5.06s12.17.29,18.3.27h7.53c-2.06,2-3.17,3.83-4.06,3.73-8.45-.94-16.61,3.52-25.13,1.14C1128.46,1654.06,1126.18,1654.53,1123.42,1654.53Z"/><path d="M2164.73,726c-19.91-.41-39.44-2.81-57-12.83-27.88-15.89-52.86-34.9-67-65.09-5.36-11.45-12-22.32-16.87-34-9.35-22.39-8.95-45.44-2.44-68.55.45-1.6,1.22-3.13,1.56-4.75,6.43-30.46,25.53-53.1,46.34-74.55,13.81-14.23,29.74-25.82,48-33.62,18.55-7.91,38-13.44,58.26-10.35,15.63,2.39,31.23,4.84,46.24,11.72,25.27,11.6,44.21,29.23,59.05,52.1,3.45,5.32,7.3,10.37,10.86,15.61,8.66,12.76,11,27.76,14.51,42.28,1.77,7.4,1.94,15.19,2.9,22.8a110.42,110.42,0,0,1-2,37.73c-8.6,39.46-28.16,71.48-61.82,94.6-11.84,8.13-23.23,16.65-37.33,20.86A144,144,0,0,1,2164.73,726Z"/><path d="M2250.7,426.82c-6.46,5.87-11.51,5.65-14.41-.86-1.83-4.08-2.24-8.92-2.64-13.47-.29-3.21.49-6.52.93-11.13-8.12,5.15-13.09,14.48-24.84,12.51,1.77-1.8,2.71-2.91,3.8-3.85,4.71-4.06,9.33-8.23,14.25-12,2.18-1.68,5.95-4.17,7.3-3.39,2.38,1.4,4.25,4.85,4.89,7.75.68,3.09-.58,6.55-.54,9.85C2239.54,420.91,2241.5,423.44,2250.7,426.82Z"/><path d="M2138.09,381.32c1.93,2.45,4,4.82,5.76,7.4,1.11,1.63,1.67,3.63,2.62,5.37,4.11,7.5,9.08,13.77,19.92,12-6.77,6.09-10.17,6.65-15.23,2.19-3.19-2.82-5.66-6.48-8.31-9.88-1.58-2-2.88-4.29-5.11-7.67-3.94,10.46-5.74,21.19-19.53,25.72,4.25-6.86,7.82-11.69,10.37-17,2.7-5.61,4.43-11.68,6.59-17.55Z"/><path d="M2008.54,503.72c2.76,7.95,8.46,13.66,4.55,23.52-4.69-9.26-8.48-16.73-12.23-24.11,1.19-4.91,5-6.05,9-6.8,2.93-.55,6.14-.37,8.78-1.52,4.84-2.11,9.36-5,14.07-7.55,2.23,4.05,2.23,7.07-2.1,10.08-3.15,2.19-7.1,3.39-10.85,4.48C2016.36,502.81,2012.76,503,2008.54,503.72Z"/><path d="M1990.8,598.61c3-11.44,16.67-12.47,19-23.13,5.89,4,6.5,7.45,1.44,12-3.9,3.49-8.42,6.28-13,9.64,5.64,4.89,16,5,14.13,17-4.37-3.38-7.76-6.16-11.31-8.7S1994,600.72,1990.8,598.61Z"/><path d="M2047.79,685.45l-30.89,2.38,7-24.44c6.09,2.25,6.09,2.25,4,14.43C2033.68,680.1,2041,678.48,2047.79,685.45Z"/><path d="M2304.65,458.29c-3.32,6.93-6.36,13.3-9.42,19.7-5.42-2.93-5.61-4.11-1.6-15.51-6-3.58-16.65.17-18.71-11.24Z"/><path d="M2091.92,725.15c7.41,1.62,7.41,7.41,7,14,7.22-1.77,12-9.23,22.23-6.57l-29.21,19.64Z"/><path d="M2053.45,449.06c-.84-9.74-1.56-18.2-2.41-28.11,13.5,2.84,23.79,16.6,38.86,8.5-6.66,10.19-12.77,9.9-33.28-.64C2055.08,435.26,2059.84,442.66,2053.45,449.06Z"/><path d="M2283.33,712l-25.74-6.69c5.39-5.54,5.39-5.54,18.2-2.79,2.58-5.56-1.43-13.84,7.54-17.87Z"/><path d="M2332.72,644l-20.09,8.34-4.31-6.77,14.42-5.63c-.86-5.42-7.26-10-1.8-17.54Z"/><path d="M2188,744.66c3.4-4,6.77-8,10.23-11.95.21-.24,1.14.16,2.54.39l-10.32,22.22c-9.44-1.81-10-11.89-17.64-15.12C2181.16,733.61,2183.47,742.47,2188,744.66Z"/><path d="M2333.55,553.26c-9.74-7.64-9.74-7.64-9.54-16.23,3.46,3.26,6.28,6.42,9.6,8.89s7.37,4.41,11.45,6.79c-3.68,6.76-14.16,7.94-12.12,19C2326.71,563.17,2326.73,563,2333.55,553.26Z"/><path d="M1020.28,233.66c1-6.21,2.15-12.4,2.88-18.63a34.91,34.91,0,0,0-.12-9.95c-.68-4-2-8.16-6.6-9.2-5.13-1.17-10.45-2.45-14.89,2.41-9.66,10.57-15.93,22.2-12.76,37.15.47,2.23.73,4.5,1.09,6.75l-2,.79c-1.43-3.59-3.55-7.08-4.15-10.8-2.63-16.51,4.79-29.5,16.53-39.75,9-7.87,25.53-.84,27.47,11.08C1029.55,214.33,1027.84,224.68,1020.28,233.66Z"/><path d="M1011.66,445.67a56.36,56.36,0,0,0,.09,7.91c.32,2.23.79,5.06,2.29,6.36,2,1.68,5,2.1,7.57,3.07.75-2.38,2.55-5.05,2-7.09-.88-3.32-3.29-6.24-5.46-10,5.43-.07,7.73,3.29,9.27,7.27,1.68,4.37,1.15,8.61-2.29,12.06-3.26,3.28-6.71,2.24-10,0C1009.83,461.44,1007.78,453.18,1011.66,445.67Z"/><path d="M994.12,380.6c-6.59-.41-8.83-2.57-10.62-10-2-8.25-.67-11.31,8-16.79l8.15,8.33-1.38,1.63L991.4,358c-6.38,3.82-7.4,5.4-5,10.7C988.24,372.74,991.22,376.23,994.12,380.6Z"/><path d="M1024.83,181.84c-5.27-4-5.2-8.29-3.16-13,1.55-3.54,4.16-4.75,8.08-4,3.18.61,5.9,1.45,6.61,5s-.3,6.47-4.08,8A83.38,83.38,0,0,0,1024.83,181.84Zm.56-14.32c-1.07,4.45-4.05,8.49,1.28,10,4.64,1.34,5.33-3.34,6.77-7.24Z"/><path d="M1031.59,145.1h7.59c-.1.9.07,1.76-.25,2-3.08,2.56-6.38,3.81-9.52.25-2.58-2.92-2.06-8.15.8-10.87,3-2.91,8.8-3.72,11.69-1.32,1.13.94,1.6,2.67,2.48,4.22-3.87-.6-7.23-1.49-10.54-1.35C1033.13,138.09,1032.58,141.85,1031.59,145.1Z"/><path d="M1055.59,536.49l9.28,12.24C1056.87,551.4,1053.46,547.91,1055.59,536.49Z"/><path d="M1050.92,443.23c2,3.16,3.87,6,6,9.45-2,2.88-5.07,3.35-7.68.29C1046.24,449.39,1046.76,445.78,1050.92,443.23Z"/><path d="M995.27,404c.36,6.19-1.89,12.68,7.51,12.35-3.08,3.46-5.4,3.63-7.34,1.12C992.6,413.84,990.25,409.86,995.27,404Z"/><path d="M1116.37,558.81c-8.6,0-9.69-2.13-5.46-10.17Z"/><path d="M1081.72,500.88l-3.89,4.87,7.44,4.33c-2,3.2-5.09,3.19-7.21.77a12.05,12.05,0,0,1-2.75-7.78c.06-1.37,3.35-2.59,5.18-3.88Z"/><path d="M1034.31,501.21l10.59,8.05C1038.48,512.53,1036.94,511.6,1034.31,501.21Z"/><path d="M1036.89,466.11c.9,3.06,1.8,6.06,2.85,9.6-4.68,1.31-6.55-1.44-7.24-5.1C1031.93,467.59,1033.33,465.56,1036.89,466.11Z"/><path d="M1070.39,477.64l7.69,12.15C1070.49,489.63,1070,488.85,1070.39,477.64Z"/><path d="M1051.64,434.45c-9.28-2.64-9.46-2.9-9.5-12.55Z"/><path d="M1052.78,425.19l-9.71-7.68C1051.44,416,1052.08,416.49,1052.78,425.19Z"/><path d="M1005.94,487.67c6.15-4.3,6.64-4.1,8.75,2.39Z"/><path d="M1070,545.14l-6.48-8.87,1.58-1.2,6.58,8.81Z"/><path d="M1052.73,506.45l-11.32-7.17C1047.79,497.63,1047.79,497.63,1052.73,506.45Z"/><path d="M1009.31,501l-7.59-7.63c5.89.56,5.89.56,9.48,6Z"/><path d="M1126.08,573.47l-7.87-.83C1121.58,568.79,1123.93,569.24,1126.08,573.47Z"/><path d="M998.09,247.56l8-2.06.69,1.28a19.33,19.33,0,0,1-4,2.49,17.86,17.86,0,0,1-4.55.42C998.18,249,998.13,248.27,998.09,247.56Z"/><path d="M1051.37,488.4c-1.16-1.85-2.32-3.71-3.67-5.85,3.72-.61,4.86,1.36,5.45,4Z"/><path d="M1516.05,197.29c37.29-.34,61.82,4.86,85,14.73,25.14,10.69,44.73,29,61.32,50.37,34.48,44.34,41.65,93.93,28.26,147.68-9.85,39.57-33.6,68.06-67.13,89.95-25.62,16.72-53.38,24.35-83.73,26.78-48.75,3.92-89.25-13.39-123.94-45.48-19-17.54-33.46-39-41.11-64.29-2.7-8.93-6-17.72-8-26.81-7.67-35.91-1.14-69.66,17-101.23,16.53-28.72,37.19-53.59,65.7-71.59C1473.65,202.16,1500.19,197.77,1516.05,197.29Zm69.12,21.07h.06l-27.68-7.46c-1.72,11.24-3.21,21-4.78,31.29l-8.26-1.33c1.25-10.22,2.45-20,3.74-30.49-7.52-.64-14.78-1.4-22.07-1.85-28.18-1.73-54.76,3.46-77.65,20.71a230.65,230.65,0,0,0-31,28.19c-18.24,19.88-32.06,42.6-39.34,68.89-6.41,23.17-5,46.23.84,69.27,9.47,37.6,26,70.45,59.35,93,27.95,18.92,58.38,29.21,92,28.75,26.87-.36,53.22-3.6,77-18.12,22.19-13.56,42.94-29.08,56.37-51.49a160,160,0,0,0,22.8-94.94c-3.14-43.85-21.23-81.08-55.28-109.57C1617.76,231.91,1603.3,221.55,1585.17,218.36Z"/><path d="M1674.22,264.87c-14.77-18.18-30-35.87-50-48.68C1646.16,227,1663.11,242.93,1674.22,264.87Z"/><path d="M1378.3,285.13c5.57-14.18,13.8-26.6,25.88-36.49q-12.06,19-24.14,38Z"/><path d="M1682.39,445.2c5.66-14.86,11.23-29.53,16.49-43.36C1700.5,410.3,1692.47,432.27,1682.39,445.2Z"/><path d="M1430.61,500.74l37.29,22C1456.61,521.32,1439.86,512,1430.61,500.74Z"/><path d="M1596.13,150.58l-1,6-1.59,0a19.82,19.82,0,0,1-.18-3.83,12.69,12.69,0,0,1,1.22-3Z"/><path d="M1462.86,267.32c-4.24-1-7.87-.69-9.32-2.34-5.44-6.17-10.17-13-15.51-20l6.81-4.85,11,13,1.39-.63c-1.08-3.7-2.34-7.37-3.14-11.13-.37-1.72.19-3.64.33-5.47,2,.55,4.74.45,6,1.75,7.46,7.63,14.9,15.32,21.76,23.49,14.79,17.64,29.49,35.37,43.7,53.47,8.6,11,18,21.57,22.58,35.15,3.56,10.59,5.22,21.79,10.86,31.73,1.39,2.45,1.48,5.82,1.59,8.8.31,8.9-7.44,14.81-15.35,10.89-4.82-2.39-9.19-6.61-12.44-11-4.33-5.84-7.88-11.85-14.23-16.26-4.66-3.24-8.13-8.83-10.9-14C1491.71,329.27,1474.9,298.89,1462.86,267.32Zm67.45,86.37c-2.24,3.12-4.7,5-4.78,7a4.67,4.67,0,0,0,6,4.77c1.91-.53,4.36-3.51,4.33-5.36S1533,356.56,1530.31,353.69Z"/><path d="M1412.56,272.54l5.65-6.88,22.61,17.86-4.33,7.65Z"/><path d="M1421.29,320.4c-8.32-3.8-15.29-6.7-22-10.12-5.48-2.8-5.36-3.23-.82-10.11L1424,311.79Z"/><path d="M1381.71,375.16,1408,372c3.59,6.75,3.41,8.06-2.16,9.14a147.86,147.86,0,0,1-18.74,2.35C1381,383.84,1380.78,383.26,1381.71,375.16Z"/><path d="M1618.07,239.1l7.18,5.41c-6.23,7.8-12.15,15.22-18,22.57-7.13-3.92-7.49-4.4-4-9.23C1607.74,251.72,1612.66,245.91,1618.07,239.1Z"/><path d="M1408.5,350.24c-8.6-1.68-15.78-2.9-22.83-4.64-1.26-.31-3.09-3.23-2.72-4.2.65-1.69,2.94-4.07,4.32-3.93a177.86,177.86,0,0,1,21.49,3.51c1.57.35,3.87,3.22,3.63,4.52C1412,347.39,1409.68,348.91,1408.5,350.24Z"/><path d="M1601,464.16l6.7-5.3L1626,481.65l-6.81,6Z"/><path d="M1665.69,427l-25.9-11.78c1-2.63,1.88-4.87,3.2-8.29,8.19,3.74,15.81,6.91,23.12,10.68C1671,420.15,1669,423.41,1665.69,427Z"/><path d="M1517.14,212.9c1,9.85,1.88,19,2.76,27.94-7.49,2.65-8.28,2.59-9.09-2.58a166.12,166.12,0,0,1-1.8-19.79C1508.85,213.89,1509.23,213.88,1517.14,212.9Z"/><path d="M1480.27,474.3c5.94.7,8.38,2.77,6.26,8-2.94,7.24-5.84,14.5-9,22.47l-8-3.92C1473.18,491.74,1476.62,483.27,1480.27,474.3Z"/><path d="M1574.07,477l7.13-3.67c3.39,8.13,6.63,15.67,9.67,23.28,1.13,2.84.33,5.13-2.75,6.45-3.4,1.45-5.11-.37-6.1-3.11C1579.33,492.49,1576.81,485,1574.07,477Z"/><path d="M1470.08,223.32l7.63-4.45L1488.64,246l-7.5,4.79C1477.28,241.18,1473.74,232.4,1470.08,223.32Z"/><path d="M1585.17,218.36l7.62,5.32c-3.12,7.55-6.19,14.76-9.06,22-1.13,2.87-2.67,4.56-5.89,3.41s-3.42-3.85-2.35-6.49c2.83-7,5.9-13.92,8.82-20.9a26.26,26.26,0,0,0,.93-3.4Z"/><path d="M1652.59,349.47c-3.12-7.58-2.94-8.52,2.8-9.58,6.23-1.16,12.55-1.82,18.85-2.59,2.93-.36,5.38.32,5.73,3.89s-1.86,4.51-4.85,4.93C1667.55,347.17,1660,348.36,1652.59,349.47Z"/><path d="M1408.49,446.26l23.44-16.08,5,5.71c-6,6.91-13.41,11.35-20.82,15.6C1411.37,454.2,1409.88,450.52,1408.49,446.26Z"/><path d="M1505.45,510.37c1.32-9.53,2.53-18.31,3.73-26.95,8-1.29,8.56-1.15,8.13,5s-1.56,12.43-2.43,18.64C1514.05,512.89,1510.77,512.9,1505.45,510.37Z"/><path d="M1451.48,455.41c5.57,2.29,7.3,5.11,3.59,9.47-4.94,5.81-10,11.56-15.37,17.83l-7.09-5.26Z"/><path d="M1670,309.23,1645,320c-4.79-5.76-4.92-7.55-.14-9.84,5.64-2.7,11.56-4.85,17.37-7.21C1667.62,300.74,1669.42,303.52,1670,309.23Z"/><path d="M1652,385.48c-1.12-5-.52-8.25,4.18-7.71,8.38,1,16.69,2.56,24.85,3.86.65,5.74-.17,8.95-5.45,8.11C1667.79,388.49,1660.07,387,1652,385.48Z"/><path d="M1645.18,461.16l-21.85-17.4c1.49-4.59,3.42-7.81,7.85-4.79,5.71,3.9,11,8.42,16.34,12.85C1651.66,455.26,1649.63,458,1645.18,461.16Z"/><path d="M1389.42,411.41l26.33-10c4.32,6.49,4.46,7.22-.36,9.37-6.05,2.7-12.38,4.77-18.63,7C1392,419.54,1390.13,417.11,1389.42,411.41Z"/><path d="M1545.1,510.48c-.88-9.15-1.77-18.3-2.73-28.25l8.28-1.72c1,8.78,1.92,16.64,2.69,24.51C1553.89,510.73,1550.85,511.86,1545.1,510.48Z"/><path d="M1650.06,274.79l-22.25,16.86c-6-5.94-6.2-6.17-1.47-10s10-7.57,15.25-11.08C1645.64,267.82,1648.37,269.32,1650.06,274.79Z"/><path d="M1490.69,337.13c-8.6-8.28-13.28-18.7-16-30.18Z"/><path d="M1549.7,336.4c5.9,8.11,8.94,16.91,7.15,26.86Q1553.28,349.82,1549.7,336.4Z"/><path d="M1562.23,377.08c4.09,5.23,6.11,10.85,3,17.36Z"/></g></g></svg>